# MagicaVoxel @ Ephtracy

# group
o 

# material
mtllib FloorTile8.mtl
usemtl palette

# normals
vn -1 0 0
vn 1 0 0
vn 0 0 1
vn 0 0 -1
vn 0 -1 0
vn 0 1 0

# texcoords
vt 0.423828 0.5
vt 0.564453 0.5
vt 0.830078 0.5
vt 0.837891 0.5
vt 0.958984 0.5
vt 0.974609 0.5
vt 0.978516 0.5
vt 0.982422 0.5
vt 0.990234 0.5

# verts
v -0.9 0 0.9
v -0.9 0 -0.9
v -0.9 0.2 0.9
v -0.9 0.2 -0.9
v 0.9 0 0.9
v 0.9 0 -0.9
v 0.9 0.2 0.9
v 0.9 0.2 -0.9
v -0.9 0 0.9
v -0.9 0.2 0.9
v 0.9 0 0.9
v 0.9 0.2 0.9
v -0.9 0 -0.9
v -0.9 0.2 -0.9
v 0.9 0 -0.9
v 0.9 0.2 -0.9
v -0.9 0 0.9
v 0.9 0 0.9
v -0.8 0 0.8
v 0.8 0 0.8
v -0.8 0 -0.8
v 0.8 0 -0.8
v -0.9 0 -0.9
v 0.9 0 -0.9
v -0.9 0.2 0.9
v 0.9 0.2 0.9
v -0.8 0.2 0.8
v -0.7 0.2 0.8
v -0.6 0.2 0.8
v -0.5 0.2 0.8
v -0.4 0.2 0.8
v -0.3 0.2 0.8
v -0.2 0.2 0.8
v -0.1 0.2 0.8
v 0.1 0.2 0.8
v 0.2 0.2 0.8
v 0.3 0.2 0.8
v 0.4 0.2 0.8
v 0.5 0.2 0.8
v 0.6 0.2 0.8
v 0.7 0.2 0.8
v 0.8 0.2 0.8
v -0.8 0.2 0.7
v -0.7 0.2 0.7
v -0.6 0.2 0.7
v -0.5 0.2 0.7
v -0.4 0.2 0.7
v -0.3 0.2 0.7
v -0.2 0.2 0.7
v -0.1 0.2 0.7
v 0.1 0.2 0.7
v 0.2 0.2 0.7
v 0.3 0.2 0.7
v 0.4 0.2 0.7
v 0.5 0.2 0.7
v 0.6 0.2 0.7
v 0.7 0.2 0.7
v 0.8 0.2 0.7
v -0.8 0.2 0.6
v -0.7 0.2 0.6
v -0.6 0.2 0.6
v -0.5 0.2 0.6
v -0.1 0.2 0.6
v 0.1 0.2 0.6
v 0.5 0.2 0.6
v 0.6 0.2 0.6
v 0.7 0.2 0.6
v 0.8 0.2 0.6
v -0.8 0.2 0.5
v -0.7 0.2 0.5
v -0.6 0.2 0.5
v -0.5 0.2 0.5
v -0.4 0.2 0.5
v 0.4 0.2 0.5
v 0.5 0.2 0.5
v 0.6 0.2 0.5
v 0.7 0.2 0.5
v 0.8 0.2 0.5
v -0.8 0.2 0.4
v -0.7 0.2 0.4
v -0.5 0.2 0.4
v -0.4 0.2 0.4
v -0.3 0.2 0.4
v 0.3 0.2 0.4
v 0.4 0.2 0.4
v 0.5 0.2 0.4
v 0.7 0.2 0.4
v 0.8 0.2 0.4
v -0.8 0.2 0.3
v -0.7 0.2 0.3
v -0.4 0.2 0.3
v -0.3 0.2 0.3
v 0.3 0.2 0.3
v 0.4 0.2 0.3
v 0.7 0.2 0.3
v 0.8 0.2 0.3
v -0.8 0.2 0.2
v -0.7 0.2 0.2
v -0.2 0.2 0.2
v -0.1 0.2 0.2
v 0.1 0.2 0.2
v 0.2 0.2 0.2
v 0.7 0.2 0.2
v 0.8 0.2 0.2
v -0.8 0.2 0.1
v -0.7 0.2 0.1
v -0.6 0.2 0.1
v -0.2 0.2 0.1
v -0.1 0.2 0.1
v 0 0.2 0.1
v 0.1 0.2 0.1
v 0.2 0.2 0.1
v 0.6 0.2 0.1
v 0.7 0.2 0.1
v 0.8 0.2 0.1
v -0.1 0.2 0
v 0 0.2 0
v 0.1 0.2 0
v -0.8 0.2 -0.1
v -0.7 0.2 -0.1
v -0.6 0.2 -0.1
v -0.2 0.2 -0.1
v -0.1 0.2 -0.1
v 0 0.2 -0.1
v 0.1 0.2 -0.1
v 0.2 0.2 -0.1
v 0.6 0.2 -0.1
v 0.7 0.2 -0.1
v 0.8 0.2 -0.1
v -0.8 0.2 -0.2
v -0.7 0.2 -0.2
v -0.2 0.2 -0.2
v -0.1 0.2 -0.2
v 0.1 0.2 -0.2
v 0.2 0.2 -0.2
v 0.7 0.2 -0.2
v 0.8 0.2 -0.2
v -0.8 0.2 -0.3
v -0.7 0.2 -0.3
v -0.4 0.2 -0.3
v -0.3 0.2 -0.3
v 0.3 0.2 -0.3
v 0.4 0.2 -0.3
v 0.7 0.2 -0.3
v 0.8 0.2 -0.3
v -0.8 0.2 -0.4
v -0.7 0.2 -0.4
v -0.5 0.2 -0.4
v -0.4 0.2 -0.4
v -0.3 0.2 -0.4
v 0.3 0.2 -0.4
v 0.4 0.2 -0.4
v 0.5 0.2 -0.4
v 0.7 0.2 -0.4
v 0.8 0.2 -0.4
v -0.8 0.2 -0.5
v -0.7 0.2 -0.5
v -0.6 0.2 -0.5
v -0.5 0.2 -0.5
v -0.4 0.2 -0.5
v 0.4 0.2 -0.5
v 0.5 0.2 -0.5
v 0.6 0.2 -0.5
v 0.7 0.2 -0.5
v 0.8 0.2 -0.5
v -0.8 0.2 -0.6
v -0.7 0.2 -0.6
v -0.6 0.2 -0.6
v -0.5 0.2 -0.6
v -0.1 0.2 -0.6
v 0.1 0.2 -0.6
v 0.5 0.2 -0.6
v 0.6 0.2 -0.6
v 0.7 0.2 -0.6
v 0.8 0.2 -0.6
v -0.8 0.2 -0.7
v -0.7 0.2 -0.7
v -0.6 0.2 -0.7
v -0.5 0.2 -0.7
v -0.4 0.2 -0.7
v -0.3 0.2 -0.7
v -0.2 0.2 -0.7
v -0.1 0.2 -0.7
v 0.1 0.2 -0.7
v 0.2 0.2 -0.7
v 0.3 0.2 -0.7
v 0.4 0.2 -0.7
v 0.5 0.2 -0.7
v 0.6 0.2 -0.7
v 0.7 0.2 -0.7
v 0.8 0.2 -0.7
v -0.8 0.2 -0.8
v -0.7 0.2 -0.8
v -0.6 0.2 -0.8
v -0.5 0.2 -0.8
v -0.4 0.2 -0.8
v -0.3 0.2 -0.8
v -0.2 0.2 -0.8
v -0.1 0.2 -0.8
v 0.1 0.2 -0.8
v 0.2 0.2 -0.8
v 0.3 0.2 -0.8
v 0.4 0.2 -0.8
v 0.5 0.2 -0.8
v 0.6 0.2 -0.8
v 0.7 0.2 -0.8
v 0.8 0.2 -0.8
v -0.9 0.2 -0.9
v 0.9 0.2 -0.9

# faces
f 3/6/1 2/6/1 1/6/1
f 4/6/1 2/6/1 3/6/1
f 5/6/2 6/6/2 7/6/2
f 7/6/2 6/6/2 8/6/2
f 11/6/3 10/6/3 9/6/3
f 12/6/3 10/6/3 11/6/3
f 13/6/4 14/6/4 15/6/4
f 15/6/4 14/6/4 16/6/4
f 19/6/5 18/6/5 17/6/5
f 20/6/5 18/6/5 19/6/5
f 21/6/5 19/6/5 17/6/5
f 21/9/5 20/9/5 19/9/5
f 22/6/5 18/6/5 20/6/5
f 22/9/5 20/9/5 21/9/5
f 23/6/5 21/6/5 17/6/5
f 23/6/5 22/6/5 21/6/5
f 24/6/5 18/6/5 22/6/5
f 24/6/5 22/6/5 23/6/5
f 25/6/6 26/6/6 27/6/6
f 27/6/6 26/6/6 28/6/6
f 28/6/6 26/6/6 29/6/6
f 29/6/6 26/6/6 30/6/6
f 30/6/6 26/6/6 31/6/6
f 31/6/6 26/6/6 32/6/6
f 32/6/6 26/6/6 33/6/6
f 33/6/6 26/6/6 34/6/6
f 34/6/6 26/6/6 35/6/6
f 35/6/6 26/6/6 36/6/6
f 36/6/6 26/6/6 37/6/6
f 37/6/6 26/6/6 38/6/6
f 38/6/6 26/6/6 39/6/6
f 39/6/6 26/6/6 40/6/6
f 40/6/6 26/6/6 41/6/6
f 41/6/6 26/6/6 42/6/6
f 25/6/6 27/6/6 43/6/6
f 27/8/6 28/8/6 43/8/6
f 28/7/6 29/7/6 44/7/6
f 43/8/6 28/8/6 44/8/6
f 29/8/6 30/8/6 45/8/6
f 44/7/6 29/7/6 45/7/6
f 30/7/6 31/7/6 46/7/6
f 45/8/6 30/8/6 46/8/6
f 31/8/6 32/8/6 47/8/6
f 46/7/6 31/7/6 47/7/6
f 32/7/6 33/7/6 48/7/6
f 47/8/6 32/8/6 48/8/6
f 33/8/6 34/8/6 49/8/6
f 48/7/6 33/7/6 49/7/6
f 34/7/6 35/7/6 50/7/6
f 49/8/6 34/8/6 50/8/6
f 35/8/6 36/8/6 51/8/6
f 50/7/6 35/7/6 51/7/6
f 36/7/6 37/7/6 52/7/6
f 51/8/6 36/8/6 52/8/6
f 37/8/6 38/8/6 53/8/6
f 52/7/6 37/7/6 53/7/6
f 38/7/6 39/7/6 54/7/6
f 53/8/6 38/8/6 54/8/6
f 39/8/6 40/8/6 55/8/6
f 54/7/6 39/7/6 55/7/6
f 40/7/6 41/7/6 56/7/6
f 55/8/6 40/8/6 56/8/6
f 41/8/6 42/8/6 57/8/6
f 56/7/6 41/7/6 57/7/6
f 42/6/6 26/6/6 58/6/6
f 57/8/6 42/8/6 58/8/6
f 25/6/6 43/6/6 59/6/6
f 43/7/6 44/7/6 59/7/6
f 44/7/6 45/7/6 59/7/6
f 45/7/6 46/7/6 59/7/6
f 46/7/6 47/7/6 59/7/6
f 47/7/6 48/7/6 59/7/6
f 48/7/6 49/7/6 59/7/6
f 49/7/6 50/7/6 59/7/6
f 59/7/6 50/7/6 60/7/6
f 60/7/6 50/7/6 61/7/6
f 61/7/6 50/7/6 62/7/6
f 50/8/6 51/8/6 63/8/6
f 62/7/6 50/7/6 63/7/6
f 56/7/6 57/7/6 64/7/6
f 63/8/6 51/8/6 64/8/6
f 55/7/6 56/7/6 64/7/6
f 57/7/6 58/7/6 64/7/6
f 54/7/6 55/7/6 64/7/6
f 53/7/6 54/7/6 64/7/6
f 52/7/6 53/7/6 64/7/6
f 51/7/6 52/7/6 64/7/6
f 64/7/6 58/7/6 65/7/6
f 65/7/6 58/7/6 66/7/6
f 66/7/6 58/7/6 67/7/6
f 58/6/6 26/6/6 68/6/6
f 67/7/6 58/7/6 68/7/6
f 59/8/6 60/8/6 69/8/6
f 25/6/6 59/6/6 69/6/6
f 60/7/6 61/7/6 70/7/6
f 69/8/6 60/8/6 70/8/6
f 61/8/6 62/8/6 71/8/6
f 70/7/6 61/7/6 71/7/6
f 62/7/6 63/7/6 72/7/6
f 71/8/6 62/8/6 72/8/6
f 63/7/6 64/7/6 72/7/6
f 64/7/6 65/7/6 72/7/6
f 72/7/6 65/7/6 73/7/6
f 73/7/6 65/7/6 74/7/6
f 65/8/6 66/8/6 75/8/6
f 74/7/6 65/7/6 75/7/6
f 66/7/6 67/7/6 76/7/6
f 75/8/6 66/8/6 76/8/6
f 67/8/6 68/8/6 77/8/6
f 76/7/6 67/7/6 77/7/6
f 68/6/6 26/6/6 78/6/6
f 77/8/6 68/8/6 78/8/6
f 70/7/6 71/7/6 79/7/6
f 25/6/6 69/6/6 79/6/6
f 69/7/6 70/7/6 79/7/6
f 71/7/6 72/7/6 79/7/6
f 79/7/6 72/7/6 80/7/6
f 72/8/6 73/8/6 81/8/6
f 80/7/6 72/7/6 81/7/6
f 73/7/6 74/7/6 82/7/6
f 81/8/6 73/8/6 82/8/6
f 82/7/6 74/7/6 83/7/6
f 83/7/6 74/7/6 84/7/6
f 74/8/6 75/8/6 85/8/6
f 84/7/6 74/7/6 85/7/6
f 77/7/6 78/7/6 86/7/6
f 85/8/6 75/8/6 86/8/6
f 76/7/6 77/7/6 86/7/6
f 75/7/6 76/7/6 86/7/6
f 86/7/6 78/7/6 87/7/6
f 78/6/6 26/6/6 88/6/6
f 87/7/6 78/7/6 88/7/6
f 79/8/6 80/8/6 89/8/6
f 25/6/6 79/6/6 89/6/6
f 81/7/6 82/7/6 90/7/6
f 89/8/6 80/8/6 90/8/6
f 80/7/6 81/7/6 90/7/6
f 82/8/6 83/8/6 91/8/6
f 90/7/6 82/7/6 91/7/6
f 83/7/6 84/7/6 92/7/6
f 91/8/6 83/8/6 92/8/6
f 84/8/6 85/8/6 93/8/6
f 92/7/6 84/7/6 93/7/6
f 86/7/6 87/7/6 94/7/6
f 93/8/6 85/8/6 94/8/6
f 85/7/6 86/7/6 94/7/6
f 87/8/6 88/8/6 95/8/6
f 94/7/6 87/7/6 95/7/6
f 88/6/6 26/6/6 96/6/6
f 95/8/6 88/8/6 96/8/6
f 91/7/6 92/7/6 97/7/6
f 90/7/6 91/7/6 97/7/6
f 89/7/6 90/7/6 97/7/6
f 25/6/6 89/6/6 97/6/6
f 97/7/6 92/7/6 98/7/6
f 92/8/6 93/8/6 99/8/6
f 99/8/6 93/8/6 100/8/6
f 100/8/6 93/8/6 101/8/6
f 101/8/6 93/8/6 102/8/6
f 95/7/6 96/7/6 103/7/6
f 93/7/6 94/7/6 103/7/6
f 94/7/6 95/7/6 103/7/6
f 96/6/6 26/6/6 104/6/6
f 103/7/6 96/7/6 104/7/6
f 25/6/6 97/6/6 105/6/6
f 97/8/6 98/8/6 105/8/6
f 98/7/6 92/7/6 106/7/6
f 105/8/6 98/8/6 106/8/6
f 106/7/6 92/7/6 107/7/6
f 92/8/6 99/8/6 108/8/6
f 99/4/6 100/4/6 108/4/6
f 100/3/6 101/3/6 109/3/6
f 108/4/6 100/4/6 109/4/6
f 109/3/6 101/3/6 110/3/6
f 101/4/6 102/4/6 111/4/6
f 110/3/6 101/3/6 111/3/6
f 102/8/6 93/8/6 112/8/6
f 111/4/6 102/4/6 112/4/6
f 93/7/6 103/7/6 113/7/6
f 103/8/6 104/8/6 114/8/6
f 113/7/6 103/7/6 114/7/6
f 104/6/6 26/6/6 115/6/6
f 114/8/6 104/8/6 115/8/6
f 109/2/6 110/2/6 116/2/6
f 108/3/6 109/3/6 116/3/6
f 110/1/6 111/1/6 117/1/6
f 116/2/6 110/2/6 117/2/6
f 111/3/6 112/3/6 118/3/6
f 117/1/6 111/1/6 118/1/6
f 25/6/6 105/6/6 119/6/6
f 105/7/6 106/7/6 119/7/6
f 106/8/6 107/8/6 120/8/6
f 119/7/6 106/7/6 120/7/6
f 107/7/6 92/7/6 121/7/6
f 120/8/6 107/8/6 121/8/6
f 108/3/6 116/3/6 122/3/6
f 92/8/6 108/8/6 122/8/6
f 116/1/6 117/1/6 123/1/6
f 122/3/6 116/3/6 123/3/6
f 117/5/6 118/5/6 124/5/6
f 123/1/6 117/1/6 124/1/6
f 118/3/6 112/3/6 125/3/6
f 124/5/6 118/5/6 125/5/6
f 112/8/6 93/8/6 126/8/6
f 125/3/6 112/3/6 126/3/6
f 113/8/6 114/8/6 127/8/6
f 93/7/6 113/7/6 127/7/6
f 114/7/6 115/7/6 128/7/6
f 127/8/6 114/8/6 128/8/6
f 115/6/6 26/6/6 129/6/6
f 128/7/6 115/7/6 129/7/6
f 119/8/6 120/8/6 130/8/6
f 25/6/6 119/6/6 130/6/6
f 120/7/6 121/7/6 131/7/6
f 130/8/6 120/8/6 131/8/6
f 122/4/6 123/4/6 132/4/6
f 92/8/6 122/8/6 132/8/6
f 123/3/6 124/3/6 133/3/6
f 132/4/6 123/4/6 133/4/6
f 124/3/6 125/3/6 133/3/6
f 125/4/6 126/4/6 134/4/6
f 133/3/6 125/3/6 134/3/6
f 126/8/6 93/8/6 135/8/6
f 134/4/6 126/4/6 135/4/6
f 127/7/6 128/7/6 136/7/6
f 128/8/6 129/8/6 136/8/6
f 129/6/6 26/6/6 137/6/6
f 136/8/6 129/8/6 137/8/6
f 130/7/6 131/7/6 138/7/6
f 25/6/6 130/6/6 138/6/6
f 131/7/6 121/7/6 139/7/6
f 138/7/6 131/7/6 139/7/6
f 121/7/6 92/7/6 140/7/6
f 139/7/6 121/7/6 140/7/6
f 92/8/6 132/8/6 141/8/6
f 140/7/6 92/7/6 141/7/6
f 133/8/6 134/8/6 141/8/6
f 132/8/6 133/8/6 141/8/6
f 134/8/6 135/8/6 141/8/6
f 135/8/6 93/8/6 142/8/6
f 141/8/6 135/8/6 142/8/6
f 136/7/6 137/7/6 142/7/6
f 127/7/6 136/7/6 142/7/6
f 93/7/6 127/7/6 142/7/6
f 142/7/6 137/7/6 143/7/6
f 143/7/6 137/7/6 144/7/6
f 137/6/6 26/6/6 145/6/6
f 144/7/6 137/7/6 145/7/6
f 138/8/6 139/8/6 146/8/6
f 25/6/6 138/6/6 146/6/6
f 139/7/6 140/7/6 147/7/6
f 146/8/6 139/8/6 147/8/6
f 147/7/6 140/7/6 148/7/6
f 140/8/6 141/8/6 149/8/6
f 148/7/6 140/7/6 149/7/6
f 141/7/6 142/7/6 150/7/6
f 149/8/6 141/8/6 150/8/6
f 142/8/6 143/8/6 151/8/6
f 150/7/6 142/7/6 151/7/6
f 143/7/6 144/7/6 152/7/6
f 151/8/6 143/8/6 152/8/6
f 152/7/6 144/7/6 153/7/6
f 144/8/6 145/8/6 154/8/6
f 153/7/6 144/7/6 154/7/6
f 145/6/6 26/6/6 155/6/6
f 154/8/6 145/8/6 155/8/6
f 25/6/6 146/6/6 156/6/6
f 147/7/6 148/7/6 156/7/6
f 146/7/6 147/7/6 156/7/6
f 156/7/6 148/7/6 157/7/6
f 157/7/6 148/7/6 158/7/6
f 148/8/6 149/8/6 159/8/6
f 158/7/6 148/7/6 159/7/6
f 150/7/6 151/7/6 160/7/6
f 159/8/6 149/8/6 160/8/6
f 149/7/6 150/7/6 160/7/6
f 151/7/6 152/7/6 160/7/6
f 152/8/6 153/8/6 161/8/6
f 160/7/6 152/7/6 161/7/6
f 153/7/6 154/7/6 162/7/6
f 161/8/6 153/8/6 162/8/6
f 154/7/6 155/7/6 162/7/6
f 162/7/6 155/7/6 163/7/6
f 163/7/6 155/7/6 164/7/6
f 155/6/6 26/6/6 165/6/6
f 164/7/6 155/7/6 165/7/6
f 25/6/6 156/6/6 166/6/6
f 156/8/6 157/8/6 166/8/6
f 157/7/6 158/7/6 167/7/6
f 166/8/6 157/8/6 167/8/6
f 158/8/6 159/8/6 168/8/6
f 167/7/6 158/7/6 168/7/6
f 160/7/6 161/7/6 169/7/6
f 168/8/6 159/8/6 169/8/6
f 159/7/6 160/7/6 169/7/6
f 161/7/6 162/7/6 169/7/6
f 169/7/6 162/7/6 170/7/6
f 170/7/6 162/7/6 171/7/6
f 162/8/6 163/8/6 172/8/6
f 171/7/6 162/7/6 172/7/6
f 163/7/6 164/7/6 173/7/6
f 172/8/6 163/8/6 173/8/6
f 164/8/6 165/8/6 174/8/6
f 173/7/6 164/7/6 174/7/6
f 165/6/6 26/6/6 175/6/6
f 174/8/6 165/8/6 175/8/6
f 166/7/6 167/7/6 176/7/6
f 167/7/6 168/7/6 176/7/6
f 25/6/6 166/6/6 176/6/6
f 169/7/6 170/7/6 176/7/6
f 168/7/6 169/7/6 176/7/6
f 176/7/6 170/7/6 177/7/6
f 177/7/6 170/7/6 178/7/6
f 178/7/6 170/7/6 179/7/6
f 179/7/6 170/7/6 180/7/6
f 180/7/6 170/7/6 181/7/6
f 181/7/6 170/7/6 182/7/6
f 170/8/6 171/8/6 183/8/6
f 182/7/6 170/7/6 183/7/6
f 171/7/6 172/7/6 184/7/6
f 183/8/6 171/8/6 184/8/6
f 174/7/6 175/7/6 184/7/6
f 173/7/6 174/7/6 184/7/6
f 172/7/6 173/7/6 184/7/6
f 184/7/6 175/7/6 185/7/6
f 185/7/6 175/7/6 186/7/6
f 186/7/6 175/7/6 187/7/6
f 187/7/6 175/7/6 188/7/6
f 188/7/6 175/7/6 189/7/6
f 189/7/6 175/7/6 190/7/6
f 175/6/6 26/6/6 191/6/6
f 190/7/6 175/7/6 191/7/6
f 25/6/6 176/6/6 192/6/6
f 176/8/6 177/8/6 192/8/6
f 177/7/6 178/7/6 193/7/6
f 192/8/6 177/8/6 193/8/6
f 178/8/6 179/8/6 194/8/6
f 193/7/6 178/7/6 194/7/6
f 179/7/6 180/7/6 195/7/6
f 194/8/6 179/8/6 195/8/6
f 180/8/6 181/8/6 196/8/6
f 195/7/6 180/7/6 196/7/6
f 181/7/6 182/7/6 197/7/6
f 196/8/6 181/8/6 197/8/6
f 182/8/6 183/8/6 198/8/6
f 197/7/6 182/7/6 198/7/6
f 183/7/6 184/7/6 199/7/6
f 198/8/6 183/8/6 199/8/6
f 184/8/6 185/8/6 200/8/6
f 199/7/6 184/7/6 200/7/6
f 185/7/6 186/7/6 201/7/6
f 200/8/6 185/8/6 201/8/6
f 186/8/6 187/8/6 202/8/6
f 201/7/6 186/7/6 202/7/6
f 187/7/6 188/7/6 203/7/6
f 202/8/6 187/8/6 203/8/6
f 188/8/6 189/8/6 204/8/6
f 203/7/6 188/7/6 204/7/6
f 189/7/6 190/7/6 205/7/6
f 204/8/6 189/8/6 205/8/6
f 190/8/6 191/8/6 206/8/6
f 205/7/6 190/7/6 206/7/6
f 191/6/6 26/6/6 207/6/6
f 206/8/6 191/8/6 207/8/6
f 196/6/6 197/6/6 208/6/6
f 203/6/6 204/6/6 208/6/6
f 206/6/6 207/6/6 208/6/6
f 202/6/6 203/6/6 208/6/6
f 201/6/6 202/6/6 208/6/6
f 200/6/6 201/6/6 208/6/6
f 199/6/6 200/6/6 208/6/6
f 198/6/6 199/6/6 208/6/6
f 197/6/6 198/6/6 208/6/6
f 25/6/6 192/6/6 208/6/6
f 204/6/6 205/6/6 208/6/6
f 205/6/6 206/6/6 208/6/6
f 192/6/6 193/6/6 208/6/6
f 195/6/6 196/6/6 208/6/6
f 193/6/6 194/6/6 208/6/6
f 194/6/6 195/6/6 208/6/6
f 207/6/6 26/6/6 209/6/6
f 208/6/6 207/6/6 209/6/6
