# MagicaVoxel @ Ephtracy

# group
o 

# material
mtllib FloorTile11.mtl
usemtl palette

# normals
vn -1 0 0
vn 1 0 0
vn 0 0 1
vn 0 0 -1
vn 0 -1 0
vn 0 1 0

# texcoords
vt 0.966797 0.5
vt 0.982422 0.5
vt 0.986328 0.5
vt 0.990234 0.5
vt 0.994141 0.5

# verts
v -0.9 0 0.9
v -0.9 0 -0.9
v -0.9 0.2 0.9
v -0.9 0.2 -0.9
v -0.7 0.1 0.7
v -0.7 0.1 0
v -0.7 0.1 -0.7
v -0.7 0.2 0.7
v -0.7 0.2 0
v -0.7 0.2 -0.7
v 0.8 0.1 0.8
v 0.8 0.1 -0.8
v 0.8 0.2 0.8
v 0.8 0.2 -0.8
v -0.8 0.1 0.8
v -0.8 0.1 -0.8
v -0.8 0.2 0.8
v -0.8 0.2 -0.8
v 0.7 0.1 0.7
v 0.7 0.1 0
v 0.7 0.1 -0.7
v 0.7 0.2 0.7
v 0.7 0.2 0
v 0.7 0.2 -0.7
v 0.9 0 0.9
v 0.9 0 -0.9
v 0.9 0.2 0.9
v 0.9 0.2 -0.9
v -0.9 0 0.9
v -0.9 0.2 0.9
v 0.9 0 0.9
v 0.9 0.2 0.9
v -0.7 0.1 0.7
v -0.7 0.2 0.7
v 0 0.1 0.7
v 0 0.2 0.7
v 0.7 0.1 0.7
v 0.7 0.2 0.7
v -0.8 0.1 -0.8
v -0.8 0.2 -0.8
v 0.8 0.1 -0.8
v 0.8 0.2 -0.8
v -0.8 0.1 0.8
v -0.8 0.2 0.8
v 0.8 0.1 0.8
v 0.8 0.2 0.8
v -0.7 0.1 -0.7
v -0.7 0.2 -0.7
v 0 0.1 -0.7
v 0 0.2 -0.7
v 0.7 0.1 -0.7
v 0.7 0.2 -0.7
v -0.9 0 -0.9
v -0.9 0.2 -0.9
v 0.9 0 -0.9
v 0.9 0.2 -0.9
v -0.9 0 0.9
v 0.9 0 0.9
v -0.8 0 0.8
v 0.8 0 0.8
v -0.7 0 0.7
v 0.7 0 0.7
v -0.4 0 0.5
v -0.3 0 0.5
v -0.1 0 0.5
v 0.1 0 0.5
v -0.5 0 0.4
v -0.4 0 0.4
v -0.3 0 0.4
v -0.1 0 0.4
v 0.1 0 0.4
v 0.2 0 0.4
v -0.3 0 0.3
v -0.1 0 0.3
v 0.1 0 0.3
v 0.2 0 0.3
v 0.3 0 0.3
v -0.5 0 0.2
v -0.4 0 0.2
v 0.3 0 0.2
v 0.4 0 0.2
v 0.1 0 0.1
v 0.2 0 0.1
v 0.4 0 0.1
v -0.1 0 -0.1
v 0.1 0 -0.1
v 0.2 0 -0.1
v 0.3 0 -0.1
v -0.3 0 -0.2
v -0.1 0 -0.2
v 0.1 0 -0.2
v 0.2 0 -0.2
v 0.3 0 -0.2
v 0.4 0 -0.2
v -0.4 0 -0.3
v -0.3 0 -0.3
v -0.2 0 -0.3
v -0.1 0 -0.3
v 0.4 0 -0.3
v 0.5 0 -0.3
v -0.5 0 -0.4
v -0.4 0 -0.4
v -0.2 0 -0.4
v 0.3 0 -0.4
v 0.5 0 -0.4
v -0.5 0 -0.5
v -0.4 0 -0.5
v -0.7 0 -0.7
v 0.7 0 -0.7
v -0.8 0 -0.8
v 0.8 0 -0.8
v -0.9 0 -0.9
v 0.9 0 -0.9
v -0.8 0.1 0.8
v 0.8 0.1 0.8
v -0.7 0.1 0.7
v 0 0.1 0.7
v 0.7 0.1 0.7
v -0.7 0.1 0
v 0.7 0.1 0
v -0.7 0.1 -0.7
v 0 0.1 -0.7
v 0.7 0.1 -0.7
v -0.8 0.1 -0.8
v 0.8 0.1 -0.8
v -0.9 0.2 0.9
v 0.9 0.2 0.9
v -0.8 0.2 0.8
v 0.8 0.2 0.8
v -0.7 0.2 0.7
v 0 0.2 0.7
v 0.7 0.2 0.7
v -0.7 0.2 0
v 0 0.2 0
v 0.7 0.2 0
v -0.7 0.2 -0.7
v 0 0.2 -0.7
v 0.7 0.2 -0.7
v -0.8 0.2 -0.8
v 0.8 0.2 -0.8
v -0.9 0.2 -0.9
v 0.9 0.2 -0.9

# faces
f 3/2/1 2/2/1 1/2/1
f 4/2/1 2/2/1 3/2/1
f 8/3/1 6/3/1 5/3/1
f 9/1/1 7/1/1 6/1/1
f 9/3/1 6/3/1 8/3/1
f 10/1/1 7/1/1 9/1/1
f 13/2/1 12/2/1 11/2/1
f 14/2/1 12/2/1 13/2/1
f 15/2/2 16/2/2 17/2/2
f 17/2/2 16/2/2 18/2/2
f 19/1/2 20/1/2 22/1/2
f 20/3/2 21/3/2 23/3/2
f 22/1/2 20/1/2 23/1/2
f 23/3/2 21/3/2 24/3/2
f 25/2/2 26/2/2 27/2/2
f 27/2/2 26/2/2 28/2/2
f 31/2/3 30/2/3 29/2/3
f 32/2/3 30/2/3 31/2/3
f 35/3/3 34/3/3 33/3/3
f 36/3/3 34/3/3 35/3/3
f 37/1/3 36/1/3 35/1/3
f 38/1/3 36/1/3 37/1/3
f 41/2/3 40/2/3 39/2/3
f 42/2/3 40/2/3 41/2/3
f 43/2/4 44/2/4 45/2/4
f 45/2/4 44/2/4 46/2/4
f 47/1/4 48/1/4 49/1/4
f 49/1/4 48/1/4 50/1/4
f 49/3/4 50/3/4 51/3/4
f 51/3/4 50/3/4 52/3/4
f 53/2/4 54/2/4 55/2/4
f 55/2/4 54/2/4 56/2/4
f 59/2/5 58/2/5 57/2/5
f 60/2/5 58/2/5 59/2/5
f 61/4/5 60/4/5 59/4/5
f 62/4/5 60/4/5 61/4/5
f 63/2/5 62/2/5 61/2/5
f 64/2/5 62/2/5 63/2/5
f 65/2/5 62/2/5 64/2/5
f 66/2/5 62/2/5 65/2/5
f 67/2/5 63/2/5 61/2/5
f 68/5/5 64/5/5 63/5/5
f 68/2/5 63/2/5 67/2/5
f 69/2/5 65/2/5 64/2/5
f 69/5/5 64/5/5 68/5/5
f 70/5/5 66/5/5 65/5/5
f 70/2/5 65/2/5 69/2/5
f 71/2/5 62/2/5 66/2/5
f 71/5/5 66/5/5 70/5/5
f 72/2/5 62/2/5 71/2/5
f 73/5/5 70/5/5 69/5/5
f 73/2/5 69/2/5 68/2/5
f 74/2/5 71/2/5 70/2/5
f 74/5/5 70/5/5 73/5/5
f 75/5/5 72/5/5 71/5/5
f 75/2/5 71/2/5 74/2/5
f 76/2/5 62/2/5 72/2/5
f 76/5/5 72/5/5 75/5/5
f 77/2/5 62/2/5 76/2/5
f 78/2/5 67/2/5 61/2/5
f 78/5/5 68/5/5 67/5/5
f 79/2/5 75/2/5 74/2/5
f 79/5/5 68/5/5 78/5/5
f 79/2/5 74/2/5 73/2/5
f 79/2/5 76/2/5 75/2/5
f 79/2/5 73/2/5 68/2/5
f 80/2/5 62/2/5 77/2/5
f 80/5/5 77/5/5 76/5/5
f 81/2/5 62/2/5 80/2/5
f 82/2/5 76/2/5 79/2/5
f 82/2/5 79/2/5 78/2/5
f 83/5/5 81/5/5 80/5/5
f 83/2/5 76/2/5 82/2/5
f 83/5/5 80/5/5 76/5/5
f 84/2/5 62/2/5 81/2/5
f 84/5/5 81/5/5 83/5/5
f 85/2/5 82/2/5 78/2/5
f 86/5/5 83/5/5 82/5/5
f 86/2/5 82/2/5 85/2/5
f 87/2/5 84/2/5 83/2/5
f 87/5/5 83/5/5 86/5/5
f 88/2/5 84/2/5 87/2/5
f 89/2/5 85/2/5 78/2/5
f 90/5/5 86/5/5 85/5/5
f 90/2/5 85/2/5 89/2/5
f 91/2/5 87/2/5 86/2/5
f 91/5/5 86/5/5 90/5/5
f 92/5/5 88/5/5 87/5/5
f 92/2/5 87/2/5 91/2/5
f 93/2/5 84/2/5 88/2/5
f 93/5/5 88/5/5 92/5/5
f 94/2/5 62/2/5 84/2/5
f 94/2/5 84/2/5 93/2/5
f 95/2/5 89/2/5 78/2/5
f 96/5/5 90/5/5 89/5/5
f 96/2/5 89/2/5 95/2/5
f 97/5/5 90/5/5 96/5/5
f 98/2/5 92/2/5 91/2/5
f 98/5/5 90/5/5 97/5/5
f 98/2/5 93/2/5 92/2/5
f 98/2/5 91/2/5 90/2/5
f 99/2/5 62/2/5 94/2/5
f 99/5/5 94/5/5 93/5/5
f 100/2/5 62/2/5 99/2/5
f 101/2/5 78/2/5 61/2/5
f 101/2/5 95/2/5 78/2/5
f 102/5/5 97/5/5 96/5/5
f 102/2/5 95/2/5 101/2/5
f 102/5/5 96/5/5 95/5/5
f 103/2/5 98/2/5 97/2/5
f 103/5/5 97/5/5 102/5/5
f 104/5/5 99/5/5 93/5/5
f 104/2/5 98/2/5 103/2/5
f 104/2/5 93/2/5 98/2/5
f 104/5/5 100/5/5 99/5/5
f 105/2/5 62/2/5 100/2/5
f 105/5/5 100/5/5 104/5/5
f 106/2/5 101/2/5 61/2/5
f 106/5/5 102/5/5 101/5/5
f 107/2/5 104/2/5 103/2/5
f 107/5/5 102/5/5 106/5/5
f 107/2/5 103/2/5 102/2/5
f 107/2/5 105/2/5 104/2/5
f 108/4/5 61/4/5 59/4/5
f 108/2/5 106/2/5 61/2/5
f 108/2/5 107/2/5 106/2/5
f 109/2/5 105/2/5 107/2/5
f 109/2/5 107/2/5 108/2/5
f 109/4/5 60/4/5 62/4/5
f 109/2/5 62/2/5 105/2/5
f 110/2/5 59/2/5 57/2/5
f 110/4/5 108/4/5 59/4/5
f 110/4/5 109/4/5 108/4/5
f 111/4/5 60/4/5 109/4/5
f 111/4/5 109/4/5 110/4/5
f 111/2/5 58/2/5 60/2/5
f 112/2/5 110/2/5 57/2/5
f 112/2/5 111/2/5 110/2/5
f 113/2/5 58/2/5 111/2/5
f 113/2/5 111/2/5 112/2/5
f 114/4/6 115/4/6 116/4/6
f 116/4/6 115/4/6 117/4/6
f 117/4/6 115/4/6 118/4/6
f 114/4/6 116/4/6 119/4/6
f 118/4/6 115/4/6 120/4/6
f 114/4/6 119/4/6 121/4/6
f 120/4/6 115/4/6 123/4/6
f 121/4/6 122/4/6 124/4/6
f 122/4/6 123/4/6 124/4/6
f 114/4/6 121/4/6 124/4/6
f 123/4/6 115/4/6 125/4/6
f 124/4/6 123/4/6 125/4/6
f 126/2/6 127/2/6 128/2/6
f 128/2/6 127/2/6 129/2/6
f 130/3/6 131/3/6 133/3/6
f 131/1/6 132/1/6 134/1/6
f 133/3/6 131/3/6 134/3/6
f 134/1/6 132/1/6 135/1/6
f 133/1/6 134/1/6 136/1/6
f 134/3/6 135/3/6 137/3/6
f 136/1/6 134/1/6 137/1/6
f 137/3/6 135/3/6 138/3/6
f 126/2/6 128/2/6 139/2/6
f 129/2/6 127/2/6 140/2/6
f 126/2/6 139/2/6 141/2/6
f 139/2/6 140/2/6 141/2/6
f 140/2/6 127/2/6 142/2/6
f 141/2/6 140/2/6 142/2/6
