# MagicaVoxel @ Ephtracy

# group
o 

# material
mtllib FloorTile12.mtl
usemtl palette

# normals
vn -1 0 0
vn 1 0 0
vn 0 0 1
vn 0 0 -1
vn 0 -1 0
vn 0 1 0

# texcoords
vt 0.0878906 0.5
vt 0.0917969 0.5
vt 0.115234 0.5
vt 0.138672 0.5
vt 0.958984 0.5
vt 0.966797 0.5
vt 0.982422 0.5
vt 0.986328 0.5
vt 0.990234 0.5
vt 0.994141 0.5

# verts
v -0.9 0 0.9
v -0.9 0 -0.9
v -0.9 0.2 0.9
v -0.9 0.2 -0.9
v -0.7 0.1 0.7
v -0.7 0.1 0
v -0.7 0.1 -0.7
v -0.7 0.2 0.7
v -0.7 0.2 0
v -0.7 0.2 -0.7
v 0.4 0.1 0.4
v 0.4 0.1 0
v 0.4 0.1 -0.4
v 0.4 0.2 0.4
v 0.4 0.2 0
v 0.4 0.2 -0.4
v 0.8 0.1 0.8
v 0.8 0.1 -0.8
v 0.8 0.2 0.8
v 0.8 0.2 -0.8
v -0.8 0.1 0.8
v -0.8 0.1 -0.8
v -0.8 0.2 0.8
v -0.8 0.2 -0.8
v -0.4 0.1 0.4
v -0.4 0.1 0
v -0.4 0.1 -0.4
v -0.4 0.2 0.4
v -0.4 0.2 0
v -0.4 0.2 -0.4
v 0.7 0.1 0.7
v 0.7 0.1 0
v 0.7 0.1 -0.7
v 0.7 0.2 0.7
v 0.7 0.2 0
v 0.7 0.2 -0.7
v 0.9 0 0.9
v 0.9 0 -0.9
v 0.9 0.2 0.9
v 0.9 0.2 -0.9
v -0.9 0 0.9
v -0.9 0.2 0.9
v 0.9 0 0.9
v 0.9 0.2 0.9
v -0.7 0.1 0.7
v -0.7 0.2 0.7
v 0 0.1 0.7
v 0 0.2 0.7
v 0.7 0.1 0.7
v 0.7 0.2 0.7
v -0.4 0.1 -0.4
v -0.4 0.2 -0.4
v 0 0.1 -0.4
v 0 0.2 -0.4
v 0.4 0.1 -0.4
v 0.4 0.2 -0.4
v -0.8 0.1 -0.8
v -0.8 0.2 -0.8
v 0.8 0.1 -0.8
v 0.8 0.2 -0.8
v -0.8 0.1 0.8
v -0.8 0.2 0.8
v 0.8 0.1 0.8
v 0.8 0.2 0.8
v -0.4 0.1 0.4
v -0.4 0.2 0.4
v 0 0.1 0.4
v 0 0.2 0.4
v 0.4 0.1 0.4
v 0.4 0.2 0.4
v -0.7 0.1 -0.7
v -0.7 0.2 -0.7
v 0 0.1 -0.7
v 0 0.2 -0.7
v 0.7 0.1 -0.7
v 0.7 0.2 -0.7
v -0.9 0 -0.9
v -0.9 0.2 -0.9
v 0.9 0 -0.9
v 0.9 0.2 -0.9
v -0.9 0 0.9
v 0.9 0 0.9
v -0.8 0 0.8
v 0.8 0 0.8
v -0.7 0 0.7
v 0.7 0 0.7
v -0.4 0 0.5
v -0.3 0 0.5
v -0.1 0 0.5
v 0.1 0 0.5
v -0.5 0 0.4
v -0.4 0 0.4
v -0.3 0 0.4
v -0.1 0 0.4
v 0.1 0 0.4
v 0.4 0 0.4
v -0.3 0 0.3
v 0.3 0 0.3
v -0.5 0 0.2
v -0.4 0 0.2
v -0.2 0 0.2
v -0.1 0 0.2
v 0.1 0 0.2
v 0.2 0 0.2
v -0.2 0 0.1
v -0.1 0 0.1
v 0.1 0 0.1
v 0.2 0 0.1
v 0 0 0
v 0.1 0 0
v -0.2 0 -0.1
v -0.1 0 -0.1
v 0 0 -0.1
v 0.1 0 -0.1
v 0.2 0 -0.1
v -0.2 0 -0.2
v -0.1 0 -0.2
v 0.1 0 -0.2
v 0.2 0 -0.2
v -0.3 0 -0.3
v 0.3 0 -0.3
v 0.4 0 -0.3
v 0.5 0 -0.3
v -0.5 0 -0.4
v -0.4 0 -0.4
v 0.4 0 -0.4
v 0.5 0 -0.4
v -0.5 0 -0.5
v -0.4 0 -0.5
v -0.7 0 -0.7
v 0.7 0 -0.7
v -0.8 0 -0.8
v 0.8 0 -0.8
v -0.9 0 -0.9
v 0.9 0 -0.9
v -0.8 0.1 0.8
v 0.8 0.1 0.8
v -0.7 0.1 0.7
v 0 0.1 0.7
v 0.7 0.1 0.7
v -0.4 0.1 0.4
v 0 0.1 0.4
v 0.4 0.1 0.4
v -0.3 0.1 0.3
v 0.3 0.1 0.3
v -0.2 0.1 0.2
v -0.1 0.1 0.2
v 0.1 0.1 0.2
v 0.2 0.1 0.2
v -0.2 0.1 0.1
v -0.1 0.1 0.1
v 0.1 0.1 0.1
v 0.2 0.1 0.1
v -0.7 0.1 0
v -0.4 0.1 0
v 0 0.1 0
v 0.1 0.1 0
v 0.4 0.1 0
v 0.7 0.1 0
v -0.2 0.1 -0.1
v -0.1 0.1 -0.1
v 0 0.1 -0.1
v 0.1 0.1 -0.1
v 0.2 0.1 -0.1
v -0.2 0.1 -0.2
v -0.1 0.1 -0.2
v 0.1 0.1 -0.2
v 0.2 0.1 -0.2
v -0.3 0.1 -0.3
v 0.3 0.1 -0.3
v -0.4 0.1 -0.4
v 0 0.1 -0.4
v 0.4 0.1 -0.4
v -0.7 0.1 -0.7
v 0 0.1 -0.7
v 0.7 0.1 -0.7
v -0.8 0.1 -0.8
v 0.8 0.1 -0.8
v -0.9 0.2 0.9
v 0.9 0.2 0.9
v -0.8 0.2 0.8
v 0.8 0.2 0.8
v -0.7 0.2 0.7
v 0 0.2 0.7
v 0.7 0.2 0.7
v -0.4 0.2 0.4
v 0 0.2 0.4
v 0.4 0.2 0.4
v -0.7 0.2 0
v -0.4 0.2 0
v 0.4 0.2 0
v 0.7 0.2 0
v -0.4 0.2 -0.4
v 0 0.2 -0.4
v 0.4 0.2 -0.4
v -0.7 0.2 -0.7
v 0 0.2 -0.7
v 0.7 0.2 -0.7
v -0.8 0.2 -0.8
v 0.8 0.2 -0.8
v -0.9 0.2 -0.9
v 0.9 0.2 -0.9

# faces
f 3/7/1 2/7/1 1/7/1
f 4/7/1 2/7/1 3/7/1
f 8/8/1 6/8/1 5/8/1
f 9/6/1 7/6/1 6/6/1
f 9/8/1 6/8/1 8/8/1
f 10/6/1 7/6/1 9/6/1
f 14/6/1 12/6/1 11/6/1
f 15/8/1 13/8/1 12/8/1
f 15/6/1 12/6/1 14/6/1
f 16/8/1 13/8/1 15/8/1
f 19/7/1 18/7/1 17/7/1
f 20/7/1 18/7/1 19/7/1
f 21/7/2 22/7/2 23/7/2
f 23/7/2 22/7/2 24/7/2
f 25/8/2 26/8/2 28/8/2
f 26/6/2 27/6/2 29/6/2
f 28/8/2 26/8/2 29/8/2
f 29/6/2 27/6/2 30/6/2
f 31/6/2 32/6/2 34/6/2
f 32/8/2 33/8/2 35/8/2
f 34/6/2 32/6/2 35/6/2
f 35/8/2 33/8/2 36/8/2
f 37/7/2 38/7/2 39/7/2
f 39/7/2 38/7/2 40/7/2
f 43/7/3 42/7/3 41/7/3
f 44/7/3 42/7/3 43/7/3
f 47/8/3 46/8/3 45/8/3
f 48/8/3 46/8/3 47/8/3
f 49/6/3 48/6/3 47/6/3
f 50/6/3 48/6/3 49/6/3
f 53/6/3 52/6/3 51/6/3
f 54/6/3 52/6/3 53/6/3
f 55/8/3 54/8/3 53/8/3
f 56/8/3 54/8/3 55/8/3
f 59/7/3 58/7/3 57/7/3
f 60/7/3 58/7/3 59/7/3
f 61/7/4 62/7/4 63/7/4
f 63/7/4 62/7/4 64/7/4
f 65/8/4 66/8/4 67/8/4
f 67/8/4 66/8/4 68/8/4
f 67/6/4 68/6/4 69/6/4
f 69/6/4 68/6/4 70/6/4
f 71/6/4 72/6/4 73/6/4
f 73/6/4 72/6/4 74/6/4
f 73/8/4 74/8/4 75/8/4
f 75/8/4 74/8/4 76/8/4
f 77/7/4 78/7/4 79/7/4
f 79/7/4 78/7/4 80/7/4
f 83/7/5 82/7/5 81/7/5
f 84/7/5 82/7/5 83/7/5
f 85/9/5 84/9/5 83/9/5
f 86/9/5 84/9/5 85/9/5
f 87/7/5 86/7/5 85/7/5
f 88/7/5 86/7/5 87/7/5
f 89/7/5 86/7/5 88/7/5
f 90/7/5 86/7/5 89/7/5
f 91/7/5 87/7/5 85/7/5
f 92/10/5 88/10/5 87/10/5
f 92/7/5 87/7/5 91/7/5
f 93/7/5 89/7/5 88/7/5
f 93/10/5 88/10/5 92/10/5
f 94/10/5 90/10/5 89/10/5
f 94/7/5 89/7/5 93/7/5
f 95/7/5 86/7/5 90/7/5
f 95/10/5 90/10/5 94/10/5
f 96/7/5 86/7/5 95/7/5
f 97/4/5 94/4/5 93/4/5
f 97/4/5 93/4/5 92/4/5
f 97/4/5 96/4/5 95/4/5
f 97/4/5 95/4/5 94/4/5
f 98/4/5 96/4/5 97/4/5
f 99/7/5 91/7/5 85/7/5
f 99/10/5 92/10/5 91/10/5
f 100/4/5 97/4/5 92/4/5
f 100/10/5 92/10/5 99/10/5
f 101/3/5 98/3/5 97/3/5
f 102/3/5 98/3/5 101/3/5
f 103/3/5 98/3/5 102/3/5
f 104/3/5 98/3/5 103/3/5
f 105/3/5 101/3/5 97/3/5
f 105/1/5 102/1/5 101/1/5
f 106/2/5 103/2/5 102/2/5
f 106/1/5 102/1/5 105/1/5
f 107/1/5 104/1/5 103/1/5
f 107/2/5 103/2/5 106/2/5
f 108/3/5 98/3/5 104/3/5
f 108/1/5 104/1/5 107/1/5
f 109/10/5 107/10/5 106/10/5
f 110/2/5 108/2/5 107/2/5
f 110/10/5 107/10/5 109/10/5
f 111/2/5 106/2/5 105/2/5
f 111/3/5 105/3/5 97/3/5
f 112/10/5 109/10/5 106/10/5
f 112/2/5 106/2/5 111/2/5
f 113/5/5 110/5/5 109/5/5
f 113/10/5 109/10/5 112/10/5
f 114/2/5 108/2/5 110/2/5
f 114/5/5 110/5/5 113/5/5
f 115/3/5 98/3/5 108/3/5
f 115/2/5 108/2/5 114/2/5
f 116/1/5 112/1/5 111/1/5
f 116/3/5 111/3/5 97/3/5
f 117/2/5 114/2/5 113/2/5
f 117/1/5 112/1/5 116/1/5
f 117/2/5 113/2/5 112/2/5
f 118/1/5 115/1/5 114/1/5
f 118/2/5 114/2/5 117/2/5
f 119/3/5 98/3/5 115/3/5
f 119/1/5 115/1/5 118/1/5
f 120/4/5 97/4/5 100/4/5
f 120/3/5 116/3/5 97/3/5
f 120/3/5 119/3/5 118/3/5
f 120/3/5 118/3/5 117/3/5
f 120/3/5 117/3/5 116/3/5
f 121/4/5 96/4/5 98/4/5
f 121/3/5 119/3/5 120/3/5
f 121/3/5 98/3/5 119/3/5
f 122/7/5 86/7/5 96/7/5
f 122/4/5 96/4/5 121/4/5
f 123/7/5 86/7/5 122/7/5
f 124/7/5 100/7/5 99/7/5
f 124/7/5 99/7/5 85/7/5
f 125/4/5 121/4/5 120/4/5
f 125/7/5 100/7/5 124/7/5
f 125/4/5 120/4/5 100/4/5
f 125/4/5 122/4/5 121/4/5
f 126/10/5 123/10/5 122/10/5
f 126/4/5 122/4/5 125/4/5
f 127/7/5 86/7/5 123/7/5
f 127/10/5 123/10/5 126/10/5
f 128/7/5 124/7/5 85/7/5
f 128/10/5 125/10/5 124/10/5
f 129/7/5 127/7/5 126/7/5
f 129/10/5 125/10/5 128/10/5
f 129/7/5 126/7/5 125/7/5
f 130/9/5 85/9/5 83/9/5
f 130/7/5 128/7/5 85/7/5
f 130/7/5 129/7/5 128/7/5
f 131/7/5 127/7/5 129/7/5
f 131/7/5 129/7/5 130/7/5
f 131/9/5 84/9/5 86/9/5
f 131/7/5 86/7/5 127/7/5
f 132/7/5 83/7/5 81/7/5
f 132/9/5 130/9/5 83/9/5
f 132/9/5 131/9/5 130/9/5
f 133/9/5 84/9/5 131/9/5
f 133/9/5 131/9/5 132/9/5
f 133/7/5 82/7/5 84/7/5
f 134/7/5 132/7/5 81/7/5
f 134/7/5 133/7/5 132/7/5
f 135/7/5 82/7/5 133/7/5
f 135/7/5 133/7/5 134/7/5
f 136/9/6 137/9/6 138/9/6
f 138/9/6 137/9/6 139/9/6
f 139/9/6 137/9/6 140/9/6
f 141/4/6 142/4/6 144/4/6
f 142/4/6 143/4/6 144/4/6
f 144/4/6 143/4/6 145/4/6
f 144/3/6 145/3/6 146/3/6
f 146/3/6 145/3/6 147/3/6
f 147/3/6 145/3/6 148/3/6
f 148/3/6 145/3/6 149/3/6
f 144/3/6 146/3/6 150/3/6
f 146/1/6 147/1/6 150/1/6
f 147/2/6 148/2/6 151/2/6
f 150/1/6 147/1/6 151/1/6
f 148/1/6 149/1/6 152/1/6
f 151/2/6 148/2/6 152/2/6
f 149/3/6 145/3/6 153/3/6
f 152/1/6 149/1/6 153/1/6
f 136/9/6 138/9/6 154/9/6
f 141/4/6 144/4/6 155/4/6
f 151/10/6 152/10/6 156/10/6
f 152/2/6 153/2/6 157/2/6
f 156/10/6 152/10/6 157/10/6
f 145/4/6 143/4/6 158/4/6
f 140/9/6 137/9/6 159/9/6
f 150/2/6 151/2/6 160/2/6
f 144/3/6 150/3/6 160/3/6
f 151/10/6 156/10/6 161/10/6
f 160/2/6 151/2/6 161/2/6
f 156/5/6 157/5/6 162/5/6
f 161/10/6 156/10/6 162/10/6
f 157/2/6 153/2/6 163/2/6
f 162/5/6 157/5/6 163/5/6
f 153/3/6 145/3/6 164/3/6
f 163/2/6 153/2/6 164/2/6
f 144/3/6 160/3/6 165/3/6
f 160/1/6 161/1/6 165/1/6
f 162/2/6 163/2/6 166/2/6
f 165/1/6 161/1/6 166/1/6
f 161/2/6 162/2/6 166/2/6
f 163/1/6 164/1/6 167/1/6
f 166/2/6 163/2/6 167/2/6
f 164/3/6 145/3/6 168/3/6
f 167/1/6 164/1/6 168/1/6
f 144/3/6 165/3/6 169/3/6
f 165/3/6 166/3/6 169/3/6
f 167/3/6 168/3/6 169/3/6
f 155/4/6 144/4/6 169/4/6
f 166/3/6 167/3/6 169/3/6
f 168/3/6 145/3/6 170/3/6
f 169/3/6 168/3/6 170/3/6
f 145/4/6 158/4/6 170/4/6
f 155/4/6 169/4/6 171/4/6
f 169/4/6 170/4/6 171/4/6
f 171/4/6 170/4/6 172/4/6
f 170/4/6 158/4/6 173/4/6
f 172/4/6 170/4/6 173/4/6
f 136/9/6 154/9/6 174/9/6
f 159/9/6 137/9/6 176/9/6
f 174/9/6 175/9/6 177/9/6
f 175/9/6 176/9/6 177/9/6
f 136/9/6 174/9/6 177/9/6
f 176/9/6 137/9/6 178/9/6
f 177/9/6 176/9/6 178/9/6
f 179/7/6 180/7/6 181/7/6
f 181/7/6 180/7/6 182/7/6
f 183/8/6 184/8/6 186/8/6
f 184/6/6 185/6/6 187/6/6
f 186/8/6 184/8/6 187/8/6
f 187/6/6 185/6/6 188/6/6
f 183/8/6 186/8/6 189/8/6
f 189/8/6 186/8/6 190/8/6
f 188/6/6 185/6/6 191/6/6
f 191/6/6 185/6/6 192/6/6
f 189/6/6 190/6/6 193/6/6
f 191/8/6 192/8/6 195/8/6
f 193/6/6 194/6/6 196/6/6
f 189/6/6 193/6/6 196/6/6
f 194/8/6 195/8/6 197/8/6
f 196/6/6 194/6/6 197/6/6
f 195/8/6 192/8/6 198/8/6
f 197/8/6 195/8/6 198/8/6
f 179/7/6 181/7/6 199/7/6
f 182/7/6 180/7/6 200/7/6
f 179/7/6 199/7/6 201/7/6
f 199/7/6 200/7/6 201/7/6
f 200/7/6 180/7/6 202/7/6
f 201/7/6 200/7/6 202/7/6
