# MagicaVoxel @ Ephtracy

# group
o 

# material
mtllib FloorTile4.mtl
usemtl palette

# normals
vn -1 0 0
vn 1 0 0
vn 0 0 1
vn 0 0 -1
vn 0 -1 0
vn 0 1 0

# texcoords
vt 0.974609 0.5
vt 0.978516 0.5
vt 0.990234 0.5

# verts
v -0.9 0 0.9
v -0.9 0 -0.9
v -0.9 0.2 0.9
v -0.9 0.2 -0.9
v -0.7 0.1 0.7
v -0.7 0.1 -0.7
v -0.7 0.2 0.7
v -0.7 0.2 -0.7
v -0.5 0.1 0.1
v -0.5 0.1 0
v -0.5 0.2 0.1
v -0.5 0.2 0
v -0.4 0.1 0.4
v -0.4 0.1 0.3
v -0.4 0.1 -0.5
v -0.4 0.1 -0.6
v -0.4 0.2 0.4
v -0.4 0.2 0.3
v -0.4 0.2 -0.5
v -0.4 0.2 -0.6
v -0.3 0.1 0.5
v -0.3 0.1 0.4
v -0.3 0.1 0.3
v -0.3 0.1 0.2
v -0.3 0.2 0.5
v -0.3 0.2 0.4
v -0.3 0.2 0.3
v -0.3 0.2 0.2
v -0.2 0.1 0.6
v -0.2 0.1 0.5
v -0.2 0.1 0.2
v -0.2 0.1 0.1
v -0.2 0.1 -0.2
v -0.2 0.1 -0.3
v -0.2 0.1 -0.4
v -0.2 0.1 -0.5
v -0.2 0.2 0.6
v -0.2 0.2 0.5
v -0.2 0.2 0.2
v -0.2 0.2 0.1
v -0.2 0.2 -0.2
v -0.2 0.2 -0.3
v -0.2 0.2 -0.4
v -0.2 0.2 -0.5
v -0.1 0.1 0.1
v -0.1 0.1 0
v -0.1 0.2 0.1
v -0.1 0.2 0
v 0 0.1 0
v 0 0.1 -0.1
v 0 0.1 -0.3
v 0 0.1 -0.4
v 0 0.2 0
v 0 0.2 -0.1
v 0 0.2 -0.3
v 0 0.2 -0.4
v 0.1 0.1 0.1
v 0.1 0.1 0
v 0.1 0.2 0.1
v 0.1 0.2 0
v 0.2 0.1 -0.1
v 0.2 0.1 -0.3
v 0.2 0.2 -0.1
v 0.2 0.2 -0.3
v 0.3 0.1 0.6
v 0.3 0.1 0.5
v 0.3 0.1 0.3
v 0.3 0.1 0.1
v 0.3 0.2 0.6
v 0.3 0.2 0.5
v 0.3 0.2 0.3
v 0.3 0.2 0.1
v 0.4 0.1 0.4
v 0.4 0.1 0.3
v 0.4 0.1 0.1
v 0.4 0.1 0
v 0.4 0.1 -0.3
v 0.4 0.1 -0.4
v 0.4 0.2 0.4
v 0.4 0.2 0.3
v 0.4 0.2 0.1
v 0.4 0.2 0
v 0.4 0.2 -0.3
v 0.4 0.2 -0.4
v 0.5 0.1 0.5
v 0.5 0.1 0.4
v 0.5 0.1 -0.4
v 0.5 0.1 -0.5
v 0.5 0.2 0.5
v 0.5 0.2 0.4
v 0.5 0.2 -0.4
v 0.5 0.2 -0.5
v 0.8 0.1 0.8
v 0.8 0.1 -0.8
v 0.8 0.2 0.8
v 0.8 0.2 -0.8
v -0.8 0.1 0.8
v -0.8 0.1 -0.8
v -0.8 0.2 0.8
v -0.8 0.2 -0.8
v -0.6 0.1 0.1
v -0.6 0.1 0
v -0.6 0.2 0.1
v -0.6 0.2 0
v -0.5 0.1 0.4
v -0.5 0.1 0.3
v -0.5 0.1 0.2
v -0.5 0.1 0.1
v -0.5 0.1 -0.4
v -0.5 0.1 -0.6
v -0.5 0.2 0.4
v -0.5 0.2 0.3
v -0.5 0.2 0.2
v -0.5 0.2 0.1
v -0.5 0.2 -0.4
v -0.5 0.2 -0.6
v -0.4 0.1 0.6
v -0.4 0.1 0.4
v -0.4 0.1 0.3
v -0.4 0.1 0.2
v -0.4 0.2 0.6
v -0.4 0.2 0.4
v -0.4 0.2 0.3
v -0.4 0.2 0.2
v -0.3 0.1 0.1
v -0.3 0.1 0
v -0.3 0.1 -0.2
v -0.3 0.1 -0.3
v -0.3 0.2 0.1
v -0.3 0.2 0
v -0.3 0.2 -0.2
v -0.3 0.2 -0.3
v -0.2 0.1 -0.3
v -0.2 0.1 -0.4
v -0.2 0.2 -0.3
v -0.2 0.2 -0.4
v -0.1 0.1 0
v -0.1 0.1 -0.1
v -0.1 0.2 0
v -0.1 0.2 -0.1
v 0 0.1 0.1
v 0 0.1 0
v 0 0.1 -0.1
v 0 0.1 -0.2
v 0 0.2 0.1
v 0 0.2 0
v 0 0.2 -0.1
v 0 0.2 -0.2
v 0.1 0.1 0.2
v 0.1 0.1 0.1
v 0.1 0.1 -0.2
v 0.1 0.1 -0.3
v 0.1 0.2 0.2
v 0.1 0.2 0.1
v 0.1 0.2 -0.2
v 0.1 0.2 -0.3
v 0.2 0.1 0.6
v 0.2 0.1 0.5
v 0.2 0.1 0.3
v 0.2 0.1 0.2
v 0.2 0.1 -0.3
v 0.2 0.1 -0.4
v 0.2 0.2 0.6
v 0.2 0.2 0.5
v 0.2 0.2 0.3
v 0.2 0.2 0.2
v 0.2 0.2 -0.3
v 0.2 0.2 -0.4
v 0.3 0.1 0.5
v 0.3 0.1 0.3
v 0.3 0.1 0.1
v 0.3 0.1 0
v 0.3 0.2 0.5
v 0.3 0.2 0.3
v 0.3 0.2 0.1
v 0.3 0.2 0
v 0.4 0.1 -0.4
v 0.4 0.1 -0.5
v 0.4 0.2 -0.4
v 0.4 0.2 -0.5
v 0.7 0.1 0.7
v 0.7 0.1 -0.7
v 0.7 0.2 0.7
v 0.7 0.2 -0.7
v 0.9 0 0.9
v 0.9 0 -0.9
v 0.9 0.2 0.9
v 0.9 0.2 -0.9
v -0.9 0 0.9
v -0.9 0.2 0.9
v 0.9 0 0.9
v 0.9 0.2 0.9
v -0.7 0.1 0.7
v -0.7 0.2 0.7
v 0.7 0.1 0.7
v 0.7 0.2 0.7
v -0.3 0.1 0.5
v -0.3 0.2 0.5
v -0.2 0.1 0.5
v -0.2 0.2 0.5
v 0.2 0.1 0.5
v 0.2 0.2 0.5
v 0.3 0.1 0.5
v 0.3 0.2 0.5
v -0.4 0.1 0.4
v -0.4 0.2 0.4
v -0.3 0.1 0.4
v -0.3 0.2 0.4
v 0.4 0.1 0.4
v 0.4 0.2 0.4
v 0.5 0.1 0.4
v 0.5 0.2 0.4
v -0.5 0.1 0.3
v -0.5 0.2 0.3
v -0.4 0.1 0.3
v -0.4 0.2 0.3
v 0.3 0.1 0.3
v 0.3 0.2 0.3
v 0.4 0.1 0.3
v 0.4 0.2 0.3
v -0.5 0.1 0.1
v -0.5 0.2 0.1
v -0.3 0.1 0.1
v -0.3 0.2 0.1
v 0.1 0.1 0.1
v 0.1 0.2 0.1
v 0.3 0.1 0.1
v 0.3 0.2 0.1
v -0.6 0.1 0
v -0.6 0.2 0
v -0.5 0.1 0
v -0.5 0.2 0
v -0.3 0.1 0
v -0.3 0.2 0
v -0.1 0.1 0
v -0.1 0.2 0
v 0 0.1 0
v 0 0.2 0
v 0.1 0.1 0
v 0.1 0.2 0
v 0.3 0.1 0
v 0.3 0.2 0
v 0.4 0.1 0
v 0.4 0.2 0
v -0.1 0.1 -0.1
v -0.1 0.2 -0.1
v 0 0.1 -0.1
v 0 0.2 -0.1
v 0 0.1 -0.2
v 0 0.2 -0.2
v 0.1 0.1 -0.2
v 0.1 0.2 -0.2
v -0.3 0.1 -0.3
v -0.3 0.2 -0.3
v -0.2 0.1 -0.3
v -0.2 0.2 -0.3
v 0.1 0.1 -0.3
v 0.1 0.2 -0.3
v 0.2 0.1 -0.3
v 0.2 0.2 -0.3
v -0.2 0.1 -0.4
v -0.2 0.2 -0.4
v 0 0.1 -0.4
v 0 0.2 -0.4
v 0.2 0.1 -0.4
v 0.2 0.2 -0.4
v 0.4 0.1 -0.4
v 0.4 0.2 -0.4
v -0.4 0.1 -0.5
v -0.4 0.2 -0.5
v -0.2 0.1 -0.5
v -0.2 0.2 -0.5
v 0.4 0.1 -0.5
v 0.4 0.2 -0.5
v 0.5 0.1 -0.5
v 0.5 0.2 -0.5
v -0.5 0.1 -0.6
v -0.5 0.2 -0.6
v -0.4 0.1 -0.6
v -0.4 0.2 -0.6
v -0.8 0.1 -0.8
v -0.8 0.2 -0.8
v 0.8 0.1 -0.8
v 0.8 0.2 -0.8
v -0.8 0.1 0.8
v -0.8 0.2 0.8
v 0.8 0.1 0.8
v 0.8 0.2 0.8
v -0.4 0.1 0.6
v -0.4 0.2 0.6
v -0.2 0.1 0.6
v -0.2 0.2 0.6
v 0.2 0.1 0.6
v 0.2 0.2 0.6
v 0.3 0.1 0.6
v 0.3 0.2 0.6
v 0.3 0.1 0.5
v 0.3 0.2 0.5
v 0.5 0.1 0.5
v 0.5 0.2 0.5
v -0.5 0.1 0.4
v -0.5 0.2 0.4
v -0.4 0.1 0.4
v -0.4 0.2 0.4
v -0.4 0.1 0.3
v -0.4 0.2 0.3
v -0.3 0.1 0.3
v -0.3 0.2 0.3
v 0.2 0.1 0.3
v 0.2 0.2 0.3
v 0.3 0.1 0.3
v 0.3 0.2 0.3
v -0.5 0.1 0.2
v -0.5 0.2 0.2
v -0.4 0.1 0.2
v -0.4 0.2 0.2
v -0.3 0.1 0.2
v -0.3 0.2 0.2
v -0.2 0.1 0.2
v -0.2 0.2 0.2
v 0.1 0.1 0.2
v 0.1 0.2 0.2
v 0.2 0.1 0.2
v 0.2 0.2 0.2
v -0.6 0.1 0.1
v -0.6 0.2 0.1
v -0.5 0.1 0.1
v -0.5 0.2 0.1
v -0.2 0.1 0.1
v -0.2 0.2 0.1
v -0.1 0.1 0.1
v -0.1 0.2 0.1
v 0 0.1 0.1
v 0 0.2 0.1
v 0.1 0.1 0.1
v 0.1 0.2 0.1
v 0.3 0.1 0.1
v 0.3 0.2 0.1
v 0.4 0.1 0.1
v 0.4 0.2 0.1
v -0.1 0.1 0
v -0.1 0.2 0
v 0 0.1 0
v 0 0.2 0
v 0 0.1 -0.1
v 0 0.2 -0.1
v 0.2 0.1 -0.1
v 0.2 0.2 -0.1
v -0.3 0.1 -0.2
v -0.3 0.2 -0.2
v -0.2 0.1 -0.2
v -0.2 0.2 -0.2
v -0.2 0.1 -0.3
v -0.2 0.2 -0.3
v 0 0.1 -0.3
v 0 0.2 -0.3
v 0.2 0.1 -0.3
v 0.2 0.2 -0.3
v 0.4 0.1 -0.3
v 0.4 0.2 -0.3
v -0.5 0.1 -0.4
v -0.5 0.2 -0.4
v -0.2 0.1 -0.4
v -0.2 0.2 -0.4
v 0.4 0.1 -0.4
v 0.4 0.2 -0.4
v 0.5 0.1 -0.4
v 0.5 0.2 -0.4
v -0.7 0.1 -0.7
v -0.7 0.2 -0.7
v 0.7 0.1 -0.7
v 0.7 0.2 -0.7
v -0.9 0 -0.9
v -0.9 0.2 -0.9
v 0.9 0 -0.9
v 0.9 0.2 -0.9
v -0.9 0 0.9
v 0.9 0 0.9
v -0.8 0 0.8
v 0.8 0 0.8
v -0.8 0 -0.8
v 0.8 0 -0.8
v -0.9 0 -0.9
v 0.9 0 -0.9
v -0.8 0.1 0.8
v 0.8 0.1 0.8
v -0.7 0.1 0.7
v 0.7 0.1 0.7
v -0.4 0.1 0.6
v -0.2 0.1 0.6
v 0.2 0.1 0.6
v 0.3 0.1 0.6
v -0.3 0.1 0.5
v -0.2 0.1 0.5
v 0.2 0.1 0.5
v 0.3 0.1 0.5
v 0.5 0.1 0.5
v -0.5 0.1 0.4
v -0.4 0.1 0.4
v -0.3 0.1 0.4
v 0.4 0.1 0.4
v 0.5 0.1 0.4
v -0.5 0.1 0.3
v -0.4 0.1 0.3
v -0.3 0.1 0.3
v 0.2 0.1 0.3
v 0.3 0.1 0.3
v 0.4 0.1 0.3
v -0.5 0.1 0.2
v -0.4 0.1 0.2
v -0.3 0.1 0.2
v -0.2 0.1 0.2
v 0.1 0.1 0.2
v 0.2 0.1 0.2
v -0.6 0.1 0.1
v -0.5 0.1 0.1
v -0.3 0.1 0.1
v -0.2 0.1 0.1
v -0.1 0.1 0.1
v 0 0.1 0.1
v 0.1 0.1 0.1
v 0.3 0.1 0.1
v 0.4 0.1 0.1
v -0.6 0.1 0
v -0.5 0.1 0
v -0.3 0.1 0
v -0.1 0.1 0
v 0 0.1 0
v 0.1 0.1 0
v 0.3 0.1 0
v 0.4 0.1 0
v -0.1 0.1 -0.1
v 0 0.1 -0.1
v 0.2 0.1 -0.1
v -0.3 0.1 -0.2
v -0.2 0.1 -0.2
v 0 0.1 -0.2
v 0.1 0.1 -0.2
v -0.3 0.1 -0.3
v -0.2 0.1 -0.3
v 0 0.1 -0.3
v 0.1 0.1 -0.3
v 0.2 0.1 -0.3
v 0.4 0.1 -0.3
v -0.5 0.1 -0.4
v -0.2 0.1 -0.4
v 0 0.1 -0.4
v 0.2 0.1 -0.4
v 0.4 0.1 -0.4
v 0.5 0.1 -0.4
v -0.4 0.1 -0.5
v -0.2 0.1 -0.5
v 0.4 0.1 -0.5
v 0.5 0.1 -0.5
v -0.5 0.1 -0.6
v -0.4 0.1 -0.6
v -0.7 0.1 -0.7
v 0.7 0.1 -0.7
v -0.8 0.1 -0.8
v 0.8 0.1 -0.8
v -0.9 0.2 0.9
v 0.9 0.2 0.9
v -0.8 0.2 0.8
v 0.8 0.2 0.8
v -0.7 0.2 0.7
v 0.7 0.2 0.7
v -0.4 0.2 0.6
v -0.2 0.2 0.6
v 0.2 0.2 0.6
v 0.3 0.2 0.6
v -0.3 0.2 0.5
v -0.2 0.2 0.5
v 0.2 0.2 0.5
v 0.3 0.2 0.5
v 0.5 0.2 0.5
v -0.5 0.2 0.4
v -0.4 0.2 0.4
v -0.3 0.2 0.4
v 0.4 0.2 0.4
v 0.5 0.2 0.4
v -0.5 0.2 0.3
v -0.4 0.2 0.3
v -0.3 0.2 0.3
v 0.2 0.2 0.3
v 0.3 0.2 0.3
v 0.4 0.2 0.3
v -0.5 0.2 0.2
v -0.4 0.2 0.2
v -0.3 0.2 0.2
v -0.2 0.2 0.2
v 0.1 0.2 0.2
v 0.2 0.2 0.2
v -0.6 0.2 0.1
v -0.5 0.2 0.1
v -0.3 0.2 0.1
v -0.2 0.2 0.1
v -0.1 0.2 0.1
v 0 0.2 0.1
v 0.1 0.2 0.1
v 0.3 0.2 0.1
v 0.4 0.2 0.1
v -0.6 0.2 0
v -0.5 0.2 0
v -0.3 0.2 0
v -0.1 0.2 0
v 0 0.2 0
v 0.1 0.2 0
v 0.3 0.2 0
v 0.4 0.2 0
v -0.1 0.2 -0.1
v 0 0.2 -0.1
v 0.2 0.2 -0.1
v -0.3 0.2 -0.2
v -0.2 0.2 -0.2
v 0 0.2 -0.2
v 0.1 0.2 -0.2
v -0.3 0.2 -0.3
v -0.2 0.2 -0.3
v 0 0.2 -0.3
v 0.1 0.2 -0.3
v 0.2 0.2 -0.3
v 0.4 0.2 -0.3
v -0.5 0.2 -0.4
v -0.2 0.2 -0.4
v 0 0.2 -0.4
v 0.2 0.2 -0.4
v 0.4 0.2 -0.4
v 0.5 0.2 -0.4
v -0.4 0.2 -0.5
v -0.2 0.2 -0.5
v 0.4 0.2 -0.5
v 0.5 0.2 -0.5
v -0.5 0.2 -0.6
v -0.4 0.2 -0.6
v -0.7 0.2 -0.7
v 0.7 0.2 -0.7
v -0.8 0.2 -0.8
v 0.8 0.2 -0.8
v -0.9 0.2 -0.9
v 0.9 0.2 -0.9

# faces
f 3/1/1 2/1/1 1/1/1
f 4/1/1 2/1/1 3/1/1
f 7/2/1 6/2/1 5/2/1
f 8/2/1 6/2/1 7/2/1
f 11/2/1 10/2/1 9/2/1
f 12/2/1 10/2/1 11/2/1
f 17/2/1 14/2/1 13/2/1
f 18/2/1 14/2/1 17/2/1
f 19/2/1 16/2/1 15/2/1
f 20/2/1 16/2/1 19/2/1
f 25/2/1 22/2/1 21/2/1
f 26/2/1 22/2/1 25/2/1
f 27/2/1 24/2/1 23/2/1
f 28/2/1 24/2/1 27/2/1
f 37/2/1 30/2/1 29/2/1
f 38/2/1 30/2/1 37/2/1
f 39/2/1 32/2/1 31/2/1
f 40/2/1 32/2/1 39/2/1
f 41/2/1 34/2/1 33/2/1
f 42/2/1 34/2/1 41/2/1
f 43/2/1 36/2/1 35/2/1
f 44/2/1 36/2/1 43/2/1
f 47/2/1 46/2/1 45/2/1
f 48/2/1 46/2/1 47/2/1
f 53/2/1 50/2/1 49/2/1
f 54/2/1 50/2/1 53/2/1
f 55/2/1 52/2/1 51/2/1
f 56/2/1 52/2/1 55/2/1
f 59/2/1 58/2/1 57/2/1
f 60/2/1 58/2/1 59/2/1
f 63/2/1 62/2/1 61/2/1
f 64/2/1 62/2/1 63/2/1
f 69/2/1 66/2/1 65/2/1
f 70/2/1 66/2/1 69/2/1
f 71/2/1 68/2/1 67/2/1
f 72/2/1 68/2/1 71/2/1
f 79/2/1 74/2/1 73/2/1
f 80/2/1 74/2/1 79/2/1
f 81/2/1 76/2/1 75/2/1
f 82/2/1 76/2/1 81/2/1
f 83/2/1 78/2/1 77/2/1
f 84/2/1 78/2/1 83/2/1
f 89/2/1 86/2/1 85/2/1
f 90/2/1 86/2/1 89/2/1
f 91/2/1 88/2/1 87/2/1
f 92/2/1 88/2/1 91/2/1
f 95/1/1 94/1/1 93/1/1
f 96/1/1 94/1/1 95/1/1
f 97/1/2 98/1/2 99/1/2
f 99/1/2 98/1/2 100/1/2
f 101/2/2 102/2/2 103/2/2
f 103/2/2 102/2/2 104/2/2
f 105/2/2 106/2/2 111/2/2
f 111/2/2 106/2/2 112/2/2
f 107/2/2 108/2/2 113/2/2
f 113/2/2 108/2/2 114/2/2
f 109/2/2 110/2/2 115/2/2
f 115/2/2 110/2/2 116/2/2
f 117/2/2 118/2/2 121/2/2
f 121/2/2 118/2/2 122/2/2
f 119/2/2 120/2/2 123/2/2
f 123/2/2 120/2/2 124/2/2
f 125/2/2 126/2/2 129/2/2
f 129/2/2 126/2/2 130/2/2
f 127/2/2 128/2/2 131/2/2
f 131/2/2 128/2/2 132/2/2
f 133/2/2 134/2/2 135/2/2
f 135/2/2 134/2/2 136/2/2
f 137/2/2 138/2/2 139/2/2
f 139/2/2 138/2/2 140/2/2
f 141/2/2 142/2/2 145/2/2
f 145/2/2 142/2/2 146/2/2
f 143/2/2 144/2/2 147/2/2
f 147/2/2 144/2/2 148/2/2
f 149/2/2 150/2/2 153/2/2
f 153/2/2 150/2/2 154/2/2
f 151/2/2 152/2/2 155/2/2
f 155/2/2 152/2/2 156/2/2
f 157/2/2 158/2/2 163/2/2
f 163/2/2 158/2/2 164/2/2
f 159/2/2 160/2/2 165/2/2
f 165/2/2 160/2/2 166/2/2
f 161/2/2 162/2/2 167/2/2
f 167/2/2 162/2/2 168/2/2
f 169/2/2 170/2/2 173/2/2
f 173/2/2 170/2/2 174/2/2
f 171/2/2 172/2/2 175/2/2
f 175/2/2 172/2/2 176/2/2
f 177/2/2 178/2/2 179/2/2
f 179/2/2 178/2/2 180/2/2
f 181/2/2 182/2/2 183/2/2
f 183/2/2 182/2/2 184/2/2
f 185/1/2 186/1/2 187/1/2
f 187/1/2 186/1/2 188/1/2
f 191/1/3 190/1/3 189/1/3
f 192/1/3 190/1/3 191/1/3
f 195/2/3 194/2/3 193/2/3
f 196/2/3 194/2/3 195/2/3
f 199/2/3 198/2/3 197/2/3
f 200/2/3 198/2/3 199/2/3
f 203/2/3 202/2/3 201/2/3
f 204/2/3 202/2/3 203/2/3
f 207/2/3 206/2/3 205/2/3
f 208/2/3 206/2/3 207/2/3
f 211/2/3 210/2/3 209/2/3
f 212/2/3 210/2/3 211/2/3
f 215/2/3 214/2/3 213/2/3
f 216/2/3 214/2/3 215/2/3
f 219/2/3 218/2/3 217/2/3
f 220/2/3 218/2/3 219/2/3
f 223/2/3 222/2/3 221/2/3
f 224/2/3 222/2/3 223/2/3
f 227/2/3 226/2/3 225/2/3
f 228/2/3 226/2/3 227/2/3
f 231/2/3 230/2/3 229/2/3
f 232/2/3 230/2/3 231/2/3
f 235/2/3 234/2/3 233/2/3
f 236/2/3 234/2/3 235/2/3
f 239/2/3 238/2/3 237/2/3
f 240/2/3 238/2/3 239/2/3
f 243/2/3 242/2/3 241/2/3
f 244/2/3 242/2/3 243/2/3
f 247/2/3 246/2/3 245/2/3
f 248/2/3 246/2/3 247/2/3
f 251/2/3 250/2/3 249/2/3
f 252/2/3 250/2/3 251/2/3
f 255/2/3 254/2/3 253/2/3
f 256/2/3 254/2/3 255/2/3
f 259/2/3 258/2/3 257/2/3
f 260/2/3 258/2/3 259/2/3
f 263/2/3 262/2/3 261/2/3
f 264/2/3 262/2/3 263/2/3
f 267/2/3 266/2/3 265/2/3
f 268/2/3 266/2/3 267/2/3
f 271/2/3 270/2/3 269/2/3
f 272/2/3 270/2/3 271/2/3
f 275/2/3 274/2/3 273/2/3
f 276/2/3 274/2/3 275/2/3
f 279/2/3 278/2/3 277/2/3
f 280/2/3 278/2/3 279/2/3
f 283/1/3 282/1/3 281/1/3
f 284/1/3 282/1/3 283/1/3
f 285/1/4 286/1/4 287/1/4
f 287/1/4 286/1/4 288/1/4
f 289/2/4 290/2/4 291/2/4
f 291/2/4 290/2/4 292/2/4
f 293/2/4 294/2/4 295/2/4
f 295/2/4 294/2/4 296/2/4
f 297/2/4 298/2/4 299/2/4
f 299/2/4 298/2/4 300/2/4
f 301/2/4 302/2/4 303/2/4
f 303/2/4 302/2/4 304/2/4
f 305/2/4 306/2/4 307/2/4
f 307/2/4 306/2/4 308/2/4
f 309/2/4 310/2/4 311/2/4
f 311/2/4 310/2/4 312/2/4
f 313/2/4 314/2/4 315/2/4
f 315/2/4 314/2/4 316/2/4
f 317/2/4 318/2/4 319/2/4
f 319/2/4 318/2/4 320/2/4
f 321/2/4 322/2/4 323/2/4
f 323/2/4 322/2/4 324/2/4
f 325/2/4 326/2/4 327/2/4
f 327/2/4 326/2/4 328/2/4
f 329/2/4 330/2/4 331/2/4
f 331/2/4 330/2/4 332/2/4
f 333/2/4 334/2/4 335/2/4
f 335/2/4 334/2/4 336/2/4
f 337/2/4 338/2/4 339/2/4
f 339/2/4 338/2/4 340/2/4
f 341/2/4 342/2/4 343/2/4
f 343/2/4 342/2/4 344/2/4
f 345/2/4 346/2/4 347/2/4
f 347/2/4 346/2/4 348/2/4
f 349/2/4 350/2/4 351/2/4
f 351/2/4 350/2/4 352/2/4
f 353/2/4 354/2/4 355/2/4
f 355/2/4 354/2/4 356/2/4
f 357/2/4 358/2/4 359/2/4
f 359/2/4 358/2/4 360/2/4
f 361/2/4 362/2/4 363/2/4
f 363/2/4 362/2/4 364/2/4
f 365/2/4 366/2/4 367/2/4
f 367/2/4 366/2/4 368/2/4
f 369/2/4 370/2/4 371/2/4
f 371/2/4 370/2/4 372/2/4
f 373/1/4 374/1/4 375/1/4
f 375/1/4 374/1/4 376/1/4
f 379/1/5 378/1/5 377/1/5
f 380/1/5 378/1/5 379/1/5
f 381/1/5 379/1/5 377/1/5
f 381/3/5 380/3/5 379/3/5
f 382/1/5 378/1/5 380/1/5
f 382/3/5 380/3/5 381/3/5
f 383/1/5 381/1/5 377/1/5
f 383/1/5 382/1/5 381/1/5
f 384/1/5 378/1/5 382/1/5
f 384/1/5 382/1/5 383/1/5
f 385/3/6 386/3/6 387/3/6
f 387/3/6 386/3/6 388/3/6
f 389/3/6 390/3/6 393/3/6
f 393/3/6 390/3/6 394/3/6
f 391/3/6 392/3/6 395/3/6
f 395/3/6 392/3/6 396/3/6
f 389/3/6 393/3/6 399/3/6
f 399/3/6 393/3/6 400/3/6
f 396/3/6 397/3/6 401/3/6
f 401/3/6 397/3/6 402/3/6
f 398/3/6 399/3/6 403/3/6
f 403/3/6 399/3/6 404/3/6
f 396/3/6 401/3/6 407/3/6
f 407/3/6 401/3/6 408/3/6
f 404/3/6 405/3/6 410/3/6
f 410/3/6 405/3/6 411/3/6
f 406/3/6 407/3/6 414/3/6
f 411/3/6 412/3/6 416/3/6
f 409/3/6 410/3/6 416/3/6
f 410/3/6 411/3/6 416/3/6
f 416/3/6 412/3/6 417/3/6
f 417/3/6 412/3/6 418/3/6
f 413/3/6 414/3/6 421/3/6
f 414/3/6 407/3/6 422/3/6
f 421/3/6 414/3/6 422/3/6
f 415/3/6 416/3/6 424/3/6
f 424/3/6 416/3/6 425/3/6
f 418/3/6 419/3/6 426/3/6
f 417/3/6 418/3/6 426/3/6
f 426/3/6 419/3/6 427/3/6
f 420/3/6 421/3/6 428/3/6
f 428/3/6 421/3/6 429/3/6
f 422/3/6 423/3/6 430/3/6
f 430/3/6 423/3/6 431/3/6
f 427/3/6 428/3/6 432/3/6
f 432/3/6 428/3/6 433/3/6
f 433/3/6 434/3/6 437/3/6
f 437/3/6 434/3/6 438/3/6
f 435/3/6 436/3/6 439/3/6
f 439/3/6 436/3/6 440/3/6
f 438/3/6 434/3/6 442/3/6
f 442/3/6 434/3/6 443/3/6
f 440/3/6 441/3/6 446/3/6
f 446/3/6 441/3/6 447/3/6
f 443/3/6 444/3/6 448/3/6
f 448/3/6 444/3/6 449/3/6
f 445/3/6 446/3/6 451/3/6
f 451/3/6 446/3/6 452/3/6
f 449/3/6 450/3/6 453/3/6
f 453/3/6 450/3/6 454/3/6
f 445/3/6 451/3/6 455/3/6
f 455/3/6 451/3/6 456/3/6
f 385/3/6 387/3/6 457/3/6
f 388/3/6 386/3/6 458/3/6
f 385/3/6 457/3/6 459/3/6
f 457/3/6 458/3/6 459/3/6
f 458/3/6 386/3/6 460/3/6
f 459/3/6 458/3/6 460/3/6
f 461/1/6 462/1/6 463/1/6
f 463/1/6 462/1/6 464/1/6
f 465/2/6 466/2/6 467/2/6
f 467/2/6 466/2/6 468/2/6
f 468/2/6 466/2/6 469/2/6
f 469/2/6 466/2/6 470/2/6
f 468/2/6 469/2/6 472/2/6
f 472/2/6 469/2/6 473/2/6
f 470/2/6 466/2/6 474/2/6
f 474/2/6 466/2/6 475/2/6
f 465/2/6 467/2/6 476/2/6
f 476/2/6 467/2/6 477/2/6
f 472/2/6 473/2/6 478/2/6
f 471/2/6 472/2/6 478/2/6
f 473/2/6 474/2/6 478/2/6
f 475/2/6 466/2/6 480/2/6
f 465/2/6 476/2/6 481/2/6
f 477/2/6 478/2/6 482/2/6
f 478/2/6 474/2/6 483/2/6
f 482/2/6 478/2/6 483/2/6
f 483/2/6 474/2/6 484/2/6
f 484/2/6 474/2/6 485/2/6
f 479/2/6 480/2/6 486/2/6
f 465/2/6 481/2/6 487/2/6
f 481/2/6 482/2/6 487/2/6
f 487/2/6 482/2/6 488/2/6
f 483/2/6 484/2/6 489/2/6
f 489/2/6 484/2/6 490/2/6
f 490/2/6 484/2/6 491/2/6
f 491/2/6 484/2/6 492/2/6
f 465/2/6 487/2/6 493/2/6
f 493/2/6 487/2/6 494/2/6
f 490/2/6 491/2/6 496/2/6
f 496/2/6 491/2/6 497/2/6
f 497/2/6 491/2/6 498/2/6
f 498/2/6 491/2/6 499/2/6
f 485/2/6 486/2/6 500/2/6
f 486/2/6 480/2/6 501/2/6
f 500/2/6 486/2/6 501/2/6
f 465/2/6 493/2/6 502/2/6
f 494/2/6 495/2/6 503/2/6
f 503/2/6 495/2/6 504/2/6
f 497/2/6 498/2/6 505/2/6
f 505/2/6 498/2/6 506/2/6
f 499/2/6 500/2/6 507/2/6
f 507/2/6 500/2/6 508/2/6
f 501/2/6 480/2/6 509/2/6
f 503/2/6 504/2/6 510/2/6
f 502/2/6 503/2/6 510/2/6
f 504/2/6 505/2/6 510/2/6
f 507/2/6 508/2/6 511/2/6
f 508/2/6 509/2/6 511/2/6
f 506/2/6 507/2/6 511/2/6
f 511/2/6 509/2/6 512/2/6
f 502/2/6 510/2/6 513/2/6
f 510/2/6 511/2/6 513/2/6
f 513/2/6 511/2/6 514/2/6
f 514/2/6 511/2/6 515/2/6
f 502/2/6 513/2/6 517/2/6
f 515/2/6 516/2/6 518/2/6
f 514/2/6 515/2/6 518/2/6
f 518/2/6 516/2/6 519/2/6
f 519/2/6 516/2/6 520/2/6
f 512/2/6 509/2/6 521/2/6
f 509/2/6 480/2/6 522/2/6
f 521/2/6 509/2/6 522/2/6
f 502/2/6 517/2/6 523/2/6
f 517/2/6 518/2/6 523/2/6
f 523/2/6 518/2/6 524/2/6
f 519/2/6 520/2/6 525/2/6
f 520/2/6 521/2/6 525/2/6
f 525/2/6 521/2/6 526/2/6
f 522/2/6 480/2/6 527/2/6
f 480/2/6 466/2/6 528/2/6
f 527/2/6 480/2/6 528/2/6
f 526/2/6 527/2/6 530/2/6
f 525/2/6 526/2/6 530/2/6
f 524/2/6 525/2/6 530/2/6
f 530/2/6 527/2/6 531/2/6
f 528/2/6 466/2/6 532/2/6
f 502/2/6 523/2/6 533/2/6
f 530/2/6 531/2/6 534/2/6
f 531/2/6 532/2/6 534/2/6
f 529/2/6 530/2/6 534/2/6
f 502/2/6 533/2/6 535/2/6
f 533/2/6 534/2/6 535/2/6
f 465/2/6 502/2/6 535/2/6
f 534/2/6 532/2/6 536/2/6
f 535/2/6 534/2/6 536/2/6
f 532/2/6 466/2/6 536/2/6
f 461/1/6 463/1/6 537/1/6
f 464/1/6 462/1/6 538/1/6
f 461/1/6 537/1/6 539/1/6
f 537/1/6 538/1/6 539/1/6
f 538/1/6 462/1/6 540/1/6
f 539/1/6 538/1/6 540/1/6
