# MagicaVoxel @ Ephtracy

# group
o 

# material
mtllib MadWizard.mtl
usemtl palette

# normals
vn -1 0 0
vn 1 0 0
vn 0 0 1
vn 0 0 -1
vn 0 -1 0
vn 0 1 0

# texcoords
vt 0.0332031 0.5
vt 0.0683594 0.5
vt 0.849609 0.5
vt 0.857422 0.5
vt 0.861328 0.5
vt 0.865234 0.5
vt 0.869141 0.5

# verts
v -0.3 0.5 0.4
v -0.3 0.5 -0.1
v -0.3 0.7 0.4
v -0.3 0.7 0.1
v -0.3 0.8 0.1
v -0.3 0.8 -0.1
v -0.2 0 0.2
v -0.2 0 0.1
v -0.2 0 0
v -0.2 0 -0.2
v -0.2 0.1 -0.1
v -0.2 0.1 -0.2
v -0.2 0.3 0.1
v -0.2 0.3 0
v -0.2 0.4 0.2
v -0.2 0.4 -0.1
v -0.2 0.5 0.2
v -0.2 0.5 -0.1
v -0.2 0.6 0.5
v -0.2 0.6 0.4
v -0.2 0.6 -0.1
v -0.2 0.6 -0.2
v -0.2 0.7 0.5
v -0.2 0.7 0.4
v -0.2 0.7 0.2
v -0.2 0.7 0.1
v -0.2 0.7 -0.1
v -0.2 0.7 -0.2
v -0.2 0.8 0.3
v -0.2 0.8 0.2
v -0.2 0.8 0.1
v -0.2 0.8 -0.1
v -0.2 1.1 0
v -0.2 1.1 -0.1
v -0.2 1.2 0.1
v -0.2 1.2 0
v -0.2 1.3 0.3
v -0.2 1.3 0.1
v -0.1 0 -0.2
v -0.1 0 -0.4
v -0.1 0.1 -0.1
v -0.1 0.1 -0.2
v -0.1 0.1 -0.4
v -0.1 0.2 -0.1
v -0.1 0.2 -0.2
v -0.1 0.7 -0.1
v -0.1 0.7 -0.2
v -0.1 0.8 -0.1
v -0.1 0.8 -0.2
v -0.1 1 -0.1
v -0.1 1 -0.2
v -0.1 1.1 0
v -0.1 1.1 -0.1
v -0.1 1.2 0.1
v -0.1 1.2 0
v -0.1 1.2 -0.1
v -0.1 1.2 -0.2
v -0.1 1.3 0.3
v -0.1 1.3 0.1
v -0.1 1.3 0
v -0.1 1.3 -0.1
v -0.1 1.4 0.3
v -0.1 1.4 0
v 2.98023e-008 0.1 -0.2
v 2.98023e-008 0.1 -0.3
v 2.98023e-008 0.2 -0.1
v 2.98023e-008 0.2 -0.2
v 2.98023e-008 0.2 -0.3
v 2.98023e-008 0.3 -0.1
v 2.98023e-008 0.3 -0.2
v 2.98023e-008 0.8 -0.1
v 2.98023e-008 0.8 -0.2
v 2.98023e-008 1 -0.1
v 2.98023e-008 1 -0.2
v 0.1 0.3 -0.1
v 0.1 0.3 -0.2
v 0.1 0.4 -0.1
v 0.1 0.4 -0.2
v 0.2 0 -0.2
v 0.2 0 -0.3
v 0.2 0.1 -0.2
v 0.2 0.1 -0.3
v 0.2 0.5 0.4
v 0.2 0.5 0.2
v 0.2 0.6 0.5
v 0.2 0.6 0.4
v 0.2 0.7 0.5
v 0.2 0.7 0.4
v 0.2 0.7 0.2
v 0.2 0.9 0.3
v 0.2 0.9 0.2
v 0.2 1.3 0.3
v 0.2 1.3 0.2
v -0.1 0.5 0.4
v -0.1 0.5 0.2
v -0.1 0.6 0.5
v -0.1 0.6 0.4
v -0.1 0.7 0.5
v -0.1 0.7 0.4
v -0.1 0.7 0.2
v -0.1 0.9 0.3
v -0.1 0.9 0.2
v -0.1 1.3 0.3
v -0.1 1.3 0.2
v 2.98023e-008 0 -0.3
v 2.98023e-008 0 -0.4
v 2.98023e-008 0.1 -0.3
v 2.98023e-008 0.1 -0.4
v 2.98023e-008 0.6 -0.1
v 2.98023e-008 0.6 -0.2
v 2.98023e-008 0.7 -0.1
v 2.98023e-008 0.7 -0.2
v 0.1 0 -0.2
v 0.1 0 -0.3
v 0.1 0.2 -0.2
v 0.1 0.2 -0.3
v 0.1 0.7 -0.1
v 0.1 0.7 -0.2
v 0.1 0.8 -0.1
v 0.1 0.8 -0.2
v 0.2 0.2 -0.1
v 0.2 0.2 -0.2
v 0.2 0.4 -0.1
v 0.2 0.4 -0.2
v 0.2 0.8 -0.1
v 0.2 0.8 -0.2
v 0.2 1.1 0
v 0.2 1.1 -0.1
v 0.2 1.2 0.1
v 0.2 1.2 0
v 0.2 1.2 -0.1
v 0.2 1.2 -0.2
v 0.2 1.3 0.3
v 0.2 1.3 0.1
v 0.2 1.3 0
v 0.2 1.3 -0.1
v 0.2 1.4 0.3
v 0.2 1.4 0
v 0.3 0 0.2
v 0.3 0 0.1
v 0.3 0 0
v 0.3 0 -0.3
v 0.3 0.1 -0.2
v 0.3 0.1 -0.3
v 0.3 0.2 -0.1
v 0.3 0.2 -0.2
v 0.3 0.3 0.1
v 0.3 0.3 0
v 0.3 0.4 0.2
v 0.3 0.4 -0.1
v 0.3 0.5 0.2
v 0.3 0.5 -0.1
v 0.3 0.6 0.5
v 0.3 0.6 0.4
v 0.3 0.7 0.5
v 0.3 0.7 0.4
v 0.3 0.7 0.2
v 0.3 0.7 0.1
v 0.3 0.8 0.3
v 0.3 0.8 0.2
v 0.3 0.8 0.1
v 0.3 0.8 -0.1
v 0.3 1.1 0
v 0.3 1.1 -0.1
v 0.3 1.2 0.1
v 0.3 1.2 0
v 0.3 1.3 0.3
v 0.3 1.3 0.1
v 0.4 0.5 0.4
v 0.4 0.5 -0.1
v 0.4 0.7 0.4
v 0.4 0.7 0.1
v 0.4 0.8 0.1
v 0.4 0.8 -0.1
v -0.2 0.6 0.5
v -0.2 0.7 0.5
v -0.1 0.6 0.5
v -0.1 0.7 0.5
v 0.2 0.6 0.5
v 0.2 0.7 0.5
v 0.3 0.6 0.5
v 0.3 0.7 0.5
v -0.3 0.5 0.4
v -0.3 0.7 0.4
v -0.2 0.6 0.4
v -0.2 0.7 0.4
v -0.1 0.5 0.4
v -0.1 0.6 0.4
v 0.2 0.5 0.4
v 0.2 0.6 0.4
v 0.3 0.6 0.4
v 0.3 0.7 0.4
v 0.4 0.5 0.4
v 0.4 0.7 0.4
v -0.2 0.8 0.3
v -0.2 1.3 0.3
v -0.1 0.9 0.3
v -0.1 1.3 0.3
v -0.1 1.4 0.3
v 0.2 0.9 0.3
v 0.2 1.3 0.3
v 0.2 1.4 0.3
v 0.3 0.8 0.3
v 0.3 1.3 0.3
v -0.2 0 0.2
v -0.2 0.4 0.2
v -0.2 0.5 0.2
v -0.2 0.7 0.2
v -0.2 0.8 0.2
v -0.1 0 0.2
v -0.1 0.4 0.2
v -0.1 0.5 0.2
v -0.1 0.7 0.2
v -0.1 0.8 0.2
v -0.1 0.9 0.2
v -0.1 1.3 0.2
v 2.98023e-008 0.3 0.2
v 2.98023e-008 0.4 0.2
v 2.98023e-008 0.5 0.2
v 2.98023e-008 0.7 0.2
v 0.1 0.2 0.2
v 0.1 0.3 0.2
v 0.1 0.4 0.2
v 0.1 0.5 0.2
v 0.1 0.7 0.2
v 0.2 0 0.2
v 0.2 0.2 0.2
v 0.2 0.3 0.2
v 0.2 0.5 0.2
v 0.2 0.7 0.2
v 0.2 0.8 0.2
v 0.2 0.9 0.2
v 0.2 1.3 0.2
v 0.3 0 0.2
v 0.3 0.4 0.2
v 0.3 0.5 0.2
v 0.3 0.7 0.2
v 0.3 0.8 0.2
v -0.3 0.7 0.1
v -0.3 0.8 0.1
v -0.2 0.7 0.1
v -0.2 0.8 0.1
v 0.3 0.7 0.1
v 0.3 0.8 0.1
v 0.4 0.7 0.1
v 0.4 0.8 0.1
v -0.2 1.2 0.1
v -0.2 1.3 0.1
v -0.1 1.2 0.1
v -0.1 1.3 0.1
v 0.2 1.2 0.1
v 0.2 1.3 0.1
v 0.3 1.2 0.1
v 0.3 1.3 0.1
v -0.2 1.1 0
v -0.2 1.2 0
v -0.1 1.1 0
v -0.1 1.2 0
v -0.1 1.3 0
v -0.1 1.4 0
v 0.2 1.1 0
v 0.2 1.2 0
v 0.2 1.3 0
v 0.2 1.4 0
v 0.3 1.1 0
v 0.3 1.2 0
v -0.3 0.5 -0.1
v -0.3 0.8 -0.1
v -0.2 0.1 -0.1
v -0.2 0.4 -0.1
v -0.2 0.5 -0.1
v -0.2 0.6 -0.1
v -0.2 0.7 -0.1
v -0.2 0.8 -0.1
v -0.2 1.1 -0.1
v -0.1 0.1 -0.1
v -0.1 0.2 -0.1
v -0.1 0.4 -0.1
v -0.1 0.7 -0.1
v -0.1 0.8 -0.1
v -0.1 1 -0.1
v -0.1 1.1 -0.1
v -0.1 1.2 -0.1
v -0.1 1.3 -0.1
v 2.98023e-008 0.2 -0.1
v 2.98023e-008 0.3 -0.1
v 2.98023e-008 0.5 -0.1
v 2.98023e-008 0.6 -0.1
v 2.98023e-008 0.7 -0.1
v 2.98023e-008 0.8 -0.1
v 2.98023e-008 1 -0.1
v 0.1 0.3 -0.1
v 0.1 0.4 -0.1
v 0.1 0.6 -0.1
v 0.1 0.7 -0.1
v 0.1 0.8 -0.1
v 0.2 0.2 -0.1
v 0.2 0.4 -0.1
v 0.2 0.7 -0.1
v 0.2 0.8 -0.1
v 0.2 1.1 -0.1
v 0.2 1.2 -0.1
v 0.2 1.3 -0.1
v 0.3 0.2 -0.1
v 0.3 0.4 -0.1
v 0.3 0.5 -0.1
v 0.3 0.8 -0.1
v 0.3 1.1 -0.1
v 0.4 0.5 -0.1
v 0.4 0.8 -0.1
v -0.2 0 -0.2
v -0.2 0.1 -0.2
v -0.2 0.6 -0.2
v -0.2 0.7 -0.2
v -0.1 0 -0.2
v -0.1 0.1 -0.2
v -0.1 0.2 -0.2
v -0.1 0.7 -0.2
v -0.1 0.8 -0.2
v -0.1 1 -0.2
v -0.1 1.2 -0.2
v 2.98023e-008 0.1 -0.2
v 2.98023e-008 0.2 -0.2
v 2.98023e-008 0.3 -0.2
v 2.98023e-008 0.6 -0.2
v 2.98023e-008 0.7 -0.2
v 2.98023e-008 0.8 -0.2
v 2.98023e-008 1 -0.2
v 0.1 0 -0.2
v 0.1 0.2 -0.2
v 0.1 0.3 -0.2
v 0.1 0.4 -0.2
v 0.1 0.7 -0.2
v 0.1 0.8 -0.2
v 0.2 0 -0.2
v 0.2 0.1 -0.2
v 0.2 0.2 -0.2
v 0.2 0.4 -0.2
v 0.2 0.8 -0.2
v 0.2 1.2 -0.2
v 0.3 0.1 -0.2
v 0.3 0.2 -0.2
v 2.98023e-008 0 -0.3
v 2.98023e-008 0.1 -0.3
v 2.98023e-008 0.2 -0.3
v 0.1 0 -0.3
v 0.1 0.2 -0.3
v 0.2 0 -0.3
v 0.2 0.1 -0.3
v 0.3 0 -0.3
v 0.3 0.1 -0.3
v -0.1 0 -0.4
v -0.1 0.1 -0.4
v 2.98023e-008 0 -0.4
v 2.98023e-008 0.1 -0.4
v -0.2 0 0.2
v -0.1 0 0.2
v 0.2 0 0.2
v 0.3 0 0.2
v -0.2 0 0.1
v -0.1 0 0.1
v 0.2 0 0.1
v 0.3 0 0.1
v -0.2 0 0
v -0.1 0 0
v 0.2 0 0
v 0.3 0 0
v 0.1 0 -0.1
v 0.2 0 -0.1
v -0.2 0 -0.2
v -0.1 0 -0.2
v 0.1 0 -0.2
v 0.2 0 -0.2
v 2.98023e-008 0 -0.3
v 0.1 0 -0.3
v 0.2 0 -0.3
v 0.3 0 -0.3
v -0.1 0 -0.4
v 2.98023e-008 0 -0.4
v -0.3 0.5 0.4
v -0.1 0.5 0.4
v 0.2 0.5 0.4
v 0.4 0.5 0.4
v -0.2 0.5 0.2
v -0.1 0.5 0.2
v 0.2 0.5 0.2
v 0.3 0.5 0.2
v -0.3 0.5 -0.1
v -0.2 0.5 -0.1
v 0.3 0.5 -0.1
v 0.4 0.5 -0.1
v -0.2 0.6 0.5
v -0.1 0.6 0.5
v 0.2 0.6 0.5
v 0.3 0.6 0.5
v -0.2 0.6 0.4
v -0.1 0.6 0.4
v 0.2 0.6 0.4
v 0.3 0.6 0.4
v -0.2 0.6 -0.1
v 2.98023e-008 0.6 -0.1
v -0.2 0.6 -0.2
v 2.98023e-008 0.6 -0.2
v 2.98023e-008 0.7 -0.1
v 0.1 0.7 -0.1
v 2.98023e-008 0.7 -0.2
v 0.1 0.7 -0.2
v -0.2 0.8 0.3
v 0.3 0.8 0.3
v -0.2 0.8 0.2
v -0.1 0.8 0.2
v 0.2 0.8 0.2
v 0.3 0.8 0.2
v 0.1 0.8 -0.1
v 0.2 0.8 -0.1
v 0.1 0.8 -0.2
v 0.2 0.8 -0.2
v -0.1 1 -0.1
v 2.98023e-008 1 -0.1
v -0.1 1 -0.2
v 2.98023e-008 1 -0.2
v -0.1 1.3 0.3
v 0.2 1.3 0.3
v -0.1 1.3 0.2
v 0.2 1.3 0.2
v -0.2 0.1 -0.1
v -0.1 0.1 -0.1
v -0.2 0.1 -0.2
v -0.1 0.1 -0.2
v 2.98023e-008 0.1 -0.2
v 0.2 0.1 -0.2
v 0.3 0.1 -0.2
v 2.98023e-008 0.1 -0.3
v 0.2 0.1 -0.3
v 0.3 0.1 -0.3
v -0.1 0.1 -0.4
v 2.98023e-008 0.1 -0.4
v -0.1 0.2 -0.1
v 2.98023e-008 0.2 -0.1
v 0.2 0.2 -0.1
v 0.3 0.2 -0.1
v -0.1 0.2 -0.2
v 2.98023e-008 0.2 -0.2
v 0.1 0.2 -0.2
v 0.2 0.2 -0.2
v 0.3 0.2 -0.2
v 2.98023e-008 0.2 -0.3
v 0.1 0.2 -0.3
v 2.98023e-008 0.3 -0.1
v 0.1 0.3 -0.1
v 2.98023e-008 0.3 -0.2
v 0.1 0.3 -0.2
v 0.1 0.4 -0.1
v 0.2 0.4 -0.1
v 0.1 0.4 -0.2
v 0.2 0.4 -0.2
v -0.2 0.7 0.5
v -0.1 0.7 0.5
v 0.2 0.7 0.5
v 0.3 0.7 0.5
v -0.3 0.7 0.4
v -0.2 0.7 0.4
v -0.1 0.7 0.4
v 0.2 0.7 0.4
v 0.3 0.7 0.4
v 0.4 0.7 0.4
v -0.2 0.7 0.2
v -0.1 0.7 0.2
v 0.2 0.7 0.2
v 0.3 0.7 0.2
v -0.3 0.7 0.1
v -0.2 0.7 0.1
v 0.3 0.7 0.1
v 0.4 0.7 0.1
v -0.2 0.7 -0.1
v -0.1 0.7 -0.1
v -0.2 0.7 -0.2
v -0.1 0.7 -0.2
v -0.3 0.8 0.1
v -0.2 0.8 0.1
v 0.3 0.8 0.1
v 0.4 0.8 0.1
v -0.3 0.8 -0.1
v -0.2 0.8 -0.1
v -0.1 0.8 -0.1
v 2.98023e-008 0.8 -0.1
v 0.3 0.8 -0.1
v 0.4 0.8 -0.1
v -0.1 0.8 -0.2
v 2.98023e-008 0.8 -0.2
v -0.1 0.9 0.3
v 0.2 0.9 0.3
v -0.1 0.9 0.2
v 0.2 0.9 0.2
v -0.2 1.1 0
v -0.1 1.1 0
v 0.2 1.1 0
v 0.3 1.1 0
v -0.2 1.1 -0.1
v -0.1 1.1 -0.1
v 0.2 1.1 -0.1
v 0.3 1.1 -0.1
v -0.2 1.2 0.1
v -0.1 1.2 0.1
v 0.2 1.2 0.1
v 0.3 1.2 0.1
v -0.2 1.2 0
v -0.1 1.2 0
v 0.2 1.2 0
v 0.3 1.2 0
v -0.1 1.2 -0.1
v 0.2 1.2 -0.1
v -0.1 1.2 -0.2
v 0.2 1.2 -0.2
v -0.2 1.3 0.3
v -0.1 1.3 0.3
v 0.2 1.3 0.3
v 0.3 1.3 0.3
v -0.2 1.3 0.1
v -0.1 1.3 0.1
v 0.2 1.3 0.1
v 0.3 1.3 0.1
v -0.1 1.3 0
v 0.2 1.3 0
v -0.1 1.3 -0.1
v 0.2 1.3 -0.1
v -0.1 1.4 0.3
v 0.2 1.4 0.3
v -0.1 1.4 0
v 0.2 1.4 0

# faces
f 3/4/1 2/4/1 1/4/1
f 4/4/1 2/4/1 3/4/1
f 5/4/1 2/4/1 4/4/1
f 6/4/1 2/4/1 5/4/1
f 11/4/1 10/4/1 9/4/1
f 12/4/1 10/4/1 11/4/1
f 13/4/1 8/4/1 7/4/1
f 13/5/1 9/5/1 8/5/1
f 14/4/1 11/4/1 9/4/1
f 14/5/1 9/5/1 13/5/1
f 15/4/1 13/4/1 7/4/1
f 15/4/1 14/4/1 13/4/1
f 16/4/1 11/4/1 14/4/1
f 16/4/1 14/4/1 15/4/1
f 17/6/1 16/6/1 15/6/1
f 18/6/1 16/6/1 17/6/1
f 23/1/1 20/1/1 19/1/1
f 24/1/1 20/1/1 23/1/1
f 27/4/1 22/4/1 21/4/1
f 28/4/1 22/4/1 27/4/1
f 30/4/1 26/4/1 25/4/1
f 31/4/1 26/4/1 30/4/1
f 33/4/1 30/4/1 29/4/1
f 33/4/1 32/4/1 31/4/1
f 33/4/1 31/4/1 30/4/1
f 34/4/1 32/4/1 33/4/1
f 35/4/1 33/4/1 29/4/1
f 36/4/1 33/4/1 35/4/1
f 37/4/1 35/4/1 29/4/1
f 38/4/1 35/4/1 37/4/1
f 42/4/1 40/4/1 39/4/1
f 43/4/1 40/4/1 42/4/1
f 44/5/1 42/5/1 41/5/1
f 45/5/1 42/5/1 44/5/1
f 48/4/1 47/4/1 46/4/1
f 49/4/1 47/4/1 48/4/1
f 53/4/1 51/4/1 50/4/1
f 55/4/1 53/4/1 52/4/1
f 56/4/1 51/4/1 53/4/1
f 56/4/1 53/4/1 55/4/1
f 57/4/1 51/4/1 56/4/1
f 59/4/1 55/4/1 54/4/1
f 59/4/1 56/4/1 55/4/1
f 60/4/1 56/4/1 59/4/1
f 61/4/1 56/4/1 60/4/1
f 62/4/1 59/4/1 58/4/1
f 62/4/1 60/4/1 59/4/1
f 63/4/1 60/4/1 62/4/1
f 67/4/1 65/4/1 64/4/1
f 68/4/1 65/4/1 67/4/1
f 69/4/1 67/4/1 66/4/1
f 70/4/1 67/4/1 69/4/1
f 73/4/1 72/4/1 71/4/1
f 74/4/1 72/4/1 73/4/1
f 77/4/1 76/4/1 75/4/1
f 78/4/1 76/4/1 77/4/1
f 81/4/1 80/4/1 79/4/1
f 82/4/1 80/4/1 81/4/1
f 86/4/1 84/4/1 83/4/1
f 87/1/1 86/1/1 85/1/1
f 88/4/1 84/4/1 86/4/1
f 88/1/1 86/1/1 87/1/1
f 89/4/1 84/4/1 88/4/1
f 92/4/1 91/4/1 90/4/1
f 93/4/1 91/4/1 92/4/1
f 94/4/2 95/4/2 97/4/2
f 96/1/2 97/1/2 98/1/2
f 97/4/2 95/4/2 99/4/2
f 98/1/2 97/1/2 99/1/2
f 99/4/2 95/4/2 100/4/2
f 101/4/2 102/4/2 103/4/2
f 103/4/2 102/4/2 104/4/2
f 105/4/2 106/4/2 107/4/2
f 107/4/2 106/4/2 108/4/2
f 109/4/2 110/4/2 111/4/2
f 111/4/2 110/4/2 112/4/2
f 113/4/2 114/4/2 115/4/2
f 115/4/2 114/4/2 116/4/2
f 117/4/2 118/4/2 119/4/2
f 119/4/2 118/4/2 120/4/2
f 121/4/2 122/4/2 123/4/2
f 123/4/2 122/4/2 124/4/2
f 125/4/2 126/4/2 128/4/2
f 127/4/2 128/4/2 130/4/2
f 128/4/2 126/4/2 131/4/2
f 130/4/2 128/4/2 131/4/2
f 131/4/2 126/4/2 132/4/2
f 129/4/2 130/4/2 134/4/2
f 130/4/2 131/4/2 134/4/2
f 134/4/2 131/4/2 135/4/2
f 135/4/2 131/4/2 136/4/2
f 133/4/2 134/4/2 137/4/2
f 134/4/2 135/4/2 137/4/2
f 137/4/2 135/4/2 138/4/2
f 141/4/2 142/4/2 143/4/2
f 143/4/2 142/4/2 144/4/2
f 141/4/2 143/4/2 145/4/2
f 145/4/2 143/4/2 146/4/2
f 139/4/2 140/4/2 147/4/2
f 140/5/2 141/5/2 147/5/2
f 141/4/2 145/4/2 148/4/2
f 147/5/2 141/5/2 148/5/2
f 139/4/2 147/4/2 149/4/2
f 147/4/2 148/4/2 149/4/2
f 148/4/2 145/4/2 150/4/2
f 149/4/2 148/4/2 150/4/2
f 149/6/2 150/6/2 151/6/2
f 151/6/2 150/6/2 152/6/2
f 153/1/2 154/1/2 155/1/2
f 155/1/2 154/1/2 156/1/2
f 157/4/2 158/4/2 160/4/2
f 160/4/2 158/4/2 161/4/2
f 159/4/2 160/4/2 163/4/2
f 161/4/2 162/4/2 163/4/2
f 160/4/2 161/4/2 163/4/2
f 163/4/2 162/4/2 164/4/2
f 159/4/2 163/4/2 165/4/2
f 165/4/2 163/4/2 166/4/2
f 159/4/2 165/4/2 167/4/2
f 167/4/2 165/4/2 168/4/2
f 169/4/2 170/4/2 171/4/2
f 171/4/2 170/4/2 172/4/2
f 172/4/2 170/4/2 173/4/2
f 173/4/2 170/4/2 174/4/2
f 177/1/3 176/1/3 175/1/3
f 178/1/3 176/1/3 177/1/3
f 181/1/3 180/1/3 179/1/3
f 182/1/3 180/1/3 181/1/3
f 185/4/3 184/4/3 183/4/3
f 186/4/3 184/4/3 185/4/3
f 187/4/3 185/4/3 183/4/3
f 188/4/3 185/4/3 187/4/3
f 191/4/3 190/4/3 189/4/3
f 193/4/3 191/4/3 189/4/3
f 193/4/3 192/4/3 191/4/3
f 194/4/3 192/4/3 193/4/3
f 197/4/3 196/4/3 195/4/3
f 198/4/3 196/4/3 197/4/3
f 200/4/3 197/4/3 195/4/3
f 201/4/3 199/4/3 198/4/3
f 202/4/3 199/4/3 201/4/3
f 203/4/3 200/4/3 195/4/3
f 203/4/3 201/4/3 200/4/3
f 204/4/3 201/4/3 203/4/3
f 210/4/3 206/4/3 205/4/3
f 211/6/3 207/6/3 206/6/3
f 211/4/3 206/4/3 210/4/3
f 212/6/3 207/6/3 211/6/3
f 213/4/3 209/4/3 208/4/3
f 214/4/3 209/4/3 213/4/3
f 217/5/3 211/5/3 210/5/3
f 218/6/3 212/6/3 211/6/3
f 218/5/3 211/5/3 217/5/3
f 219/4/3 213/4/3 212/4/3
f 219/6/3 212/6/3 218/6/3
f 220/5/3 214/5/3 213/5/3
f 220/4/3 213/4/3 219/4/3
f 221/5/3 217/5/3 210/5/3
f 222/6/3 218/6/3 217/6/3
f 222/5/3 217/5/3 221/5/3
f 223/2/3 219/2/3 218/2/3
f 223/6/3 218/6/3 222/6/3
f 224/5/3 220/5/3 219/5/3
f 224/2/3 219/2/3 223/2/3
f 225/5/3 214/5/3 220/5/3
f 225/5/3 220/5/3 224/5/3
f 226/5/3 221/5/3 210/5/3
f 227/6/3 222/6/3 221/6/3
f 227/5/3 221/5/3 226/5/3
f 228/4/3 223/4/3 222/4/3
f 228/6/3 222/6/3 227/6/3
f 229/6/3 224/6/3 223/6/3
f 229/4/3 225/4/3 224/4/3
f 230/5/3 214/5/3 225/5/3
f 230/4/3 225/4/3 229/4/3
f 231/5/3 214/5/3 230/5/3
f 232/7/3 216/7/3 215/7/3
f 233/7/3 216/7/3 232/7/3
f 234/4/3 227/4/3 226/4/3
f 234/4/3 228/4/3 227/4/3
f 235/4/3 223/4/3 228/4/3
f 235/4/3 228/4/3 234/4/3
f 235/6/3 229/6/3 223/6/3
f 236/6/3 229/6/3 235/6/3
f 237/4/3 231/4/3 230/4/3
f 238/4/3 231/4/3 237/4/3
f 241/4/3 240/4/3 239/4/3
f 242/4/3 240/4/3 241/4/3
f 245/4/3 244/4/3 243/4/3
f 246/4/3 244/4/3 245/4/3
f 247/4/4 248/4/4 249/4/4
f 249/4/4 248/4/4 250/4/4
f 251/4/4 252/4/4 253/4/4
f 253/4/4 252/4/4 254/4/4
f 255/4/4 256/4/4 257/4/4
f 257/4/4 256/4/4 258/4/4
f 259/4/4 260/4/4 263/4/4
f 263/4/4 260/4/4 264/4/4
f 261/4/4 262/4/4 265/4/4
f 265/4/4 262/4/4 266/4/4
f 267/4/4 268/4/4 271/4/4
f 271/4/4 268/4/4 272/4/4
f 272/4/4 268/4/4 273/4/4
f 273/4/4 268/4/4 274/4/4
f 269/4/4 270/4/4 276/4/4
f 276/4/4 270/4/4 277/4/4
f 270/6/4 271/6/4 278/6/4
f 277/4/4 270/4/4 278/4/4
f 274/4/4 275/4/4 279/4/4
f 273/4/4 274/4/4 279/4/4
f 279/4/4 275/4/4 280/4/4
f 280/4/4 275/4/4 281/4/4
f 281/4/4 275/4/4 282/4/4
f 277/5/4 278/5/4 285/5/4
f 285/5/4 278/5/4 286/5/4
f 278/6/4 271/6/4 287/6/4
f 271/5/4 272/5/4 287/5/4
f 287/5/4 272/5/4 288/5/4
f 280/5/4 281/5/4 290/5/4
f 290/5/4 281/5/4 291/5/4
f 286/5/4 278/5/4 292/5/4
f 278/6/4 287/6/4 293/6/4
f 292/5/4 278/5/4 293/5/4
f 288/5/4 289/5/4 294/5/4
f 287/4/4 288/4/4 294/4/4
f 294/5/4 289/5/4 295/5/4
f 293/6/4 287/6/4 298/6/4
f 294/4/4 295/4/4 299/4/4
f 295/5/4 296/5/4 299/5/4
f 299/5/4 296/5/4 300/5/4
f 283/4/4 284/4/4 302/4/4
f 302/4/4 284/4/4 303/4/4
f 297/4/4 298/4/4 304/4/4
f 298/6/4 287/6/4 305/6/4
f 304/4/4 298/4/4 305/4/4
f 299/4/4 300/4/4 306/4/4
f 305/6/4 287/6/4 306/6/4
f 300/4/4 301/4/4 306/4/4
f 287/4/4 294/4/4 306/4/4
f 294/4/4 299/4/4 306/4/4
f 306/4/4 301/4/4 307/4/4
f 307/4/4 301/4/4 308/4/4
f 306/4/4 307/4/4 309/4/4
f 309/4/4 307/4/4 310/4/4
f 311/4/4 312/4/4 315/4/4
f 315/4/4 312/4/4 316/4/4
f 313/4/4 314/4/4 318/4/4
f 316/5/4 317/5/4 322/5/4
f 322/5/4 317/5/4 323/5/4
f 318/4/4 319/4/4 325/4/4
f 313/4/4 318/4/4 325/4/4
f 325/4/4 319/4/4 326/4/4
f 326/4/4 319/4/4 327/4/4
f 320/4/4 321/4/4 328/4/4
f 323/4/4 324/4/4 330/4/4
f 330/4/4 324/4/4 331/4/4
f 326/4/4 327/4/4 333/4/4
f 327/4/4 328/4/4 333/4/4
f 333/4/4 328/4/4 334/4/4
f 329/5/4 330/5/4 335/5/4
f 335/5/4 330/5/4 336/5/4
f 331/4/4 332/4/4 337/4/4
f 336/5/4 330/5/4 337/5/4
f 330/4/4 331/4/4 337/4/4
f 337/4/4 332/4/4 338/4/4
f 334/4/4 328/4/4 339/4/4
f 328/4/4 321/4/4 340/4/4
f 339/4/4 328/4/4 340/4/4
f 336/4/4 337/4/4 341/4/4
f 341/4/4 337/4/4 342/4/4
f 343/4/4 344/4/4 346/4/4
f 344/4/4 345/4/4 346/4/4
f 346/4/4 345/4/4 347/4/4
f 348/4/4 349/4/4 350/4/4
f 350/4/4 349/4/4 351/4/4
f 352/4/4 353/4/4 354/4/4
f 354/4/4 353/4/4 355/4/4
f 360/4/5 357/4/5 356/4/5
f 361/5/5 358/5/5 357/5/5
f 361/4/5 357/4/5 360/4/5
f 362/4/5 359/4/5 358/4/5
f 362/5/5 358/5/5 361/5/5
f 363/4/5 359/4/5 362/4/5
f 364/5/5 361/5/5 360/5/5
f 365/4/5 362/4/5 361/4/5
f 365/5/5 361/5/5 364/5/5
f 366/5/5 363/5/5 362/5/5
f 366/4/5 362/4/5 365/4/5
f 367/5/5 363/5/5 366/5/5
f 368/4/5 365/4/5 364/4/5
f 368/4/5 366/4/5 365/4/5
f 368/4/5 367/4/5 366/4/5
f 369/4/5 367/4/5 368/4/5
f 370/4/5 368/4/5 364/4/5
f 371/4/5 368/4/5 370/4/5
f 372/5/5 369/5/5 368/5/5
f 372/4/5 368/4/5 371/4/5
f 373/4/5 367/4/5 369/4/5
f 373/5/5 369/5/5 372/5/5
f 374/4/5 372/4/5 371/4/5
f 375/4/5 372/4/5 374/4/5
f 376/4/5 367/4/5 373/4/5
f 377/4/5 367/4/5 376/4/5
f 378/4/5 374/4/5 371/4/5
f 379/4/5 374/4/5 378/4/5
f 384/4/5 381/4/5 380/4/5
f 385/4/5 381/4/5 384/4/5
f 386/4/5 383/4/5 382/4/5
f 387/4/5 383/4/5 386/4/5
f 388/4/5 384/4/5 380/4/5
f 389/4/5 384/4/5 388/4/5
f 390/4/5 383/4/5 387/4/5
f 391/4/5 383/4/5 390/4/5
f 396/1/5 393/1/5 392/1/5
f 397/1/5 393/1/5 396/1/5
f 398/1/5 395/1/5 394/1/5
f 399/1/5 395/1/5 398/1/5
f 402/4/5 401/4/5 400/4/5
f 403/4/5 401/4/5 402/4/5
f 406/4/5 405/4/5 404/4/5
f 407/4/5 405/4/5 406/4/5
f 410/4/5 409/4/5 408/4/5
f 411/4/5 409/4/5 410/4/5
f 412/4/5 409/4/5 411/4/5
f 413/4/5 409/4/5 412/4/5
f 416/4/5 415/4/5 414/4/5
f 417/4/5 415/4/5 416/4/5
f 420/4/5 419/4/5 418/4/5
f 421/4/5 419/4/5 420/4/5
f 424/4/5 423/4/5 422/4/5
f 425/4/5 423/4/5 424/4/5
f 426/4/6 427/4/6 428/4/6
f 428/4/6 427/4/6 429/4/6
f 429/4/6 430/4/6 433/4/6
f 431/4/6 432/4/6 434/4/6
f 434/4/6 432/4/6 435/4/6
f 429/4/6 433/4/6 436/4/6
f 436/4/6 433/4/6 437/4/6
f 438/5/6 439/5/6 442/5/6
f 442/5/6 439/5/6 443/5/6
f 440/4/6 441/4/6 445/4/6
f 445/4/6 441/4/6 446/4/6
f 443/4/6 444/4/6 447/4/6
f 447/4/6 444/4/6 448/4/6
f 449/4/6 450/4/6 451/4/6
f 451/4/6 450/4/6 452/4/6
f 453/4/6 454/4/6 455/4/6
f 455/4/6 454/4/6 456/4/6
f 457/1/6 458/1/6 462/1/6
f 462/1/6 458/1/6 463/1/6
f 459/1/6 460/1/6 464/1/6
f 464/1/6 460/1/6 465/1/6
f 462/4/6 463/4/6 467/4/6
f 461/4/6 462/4/6 467/4/6
f 467/4/6 463/4/6 468/4/6
f 465/4/6 466/4/6 469/4/6
f 464/4/6 465/4/6 469/4/6
f 469/4/6 466/4/6 470/4/6
f 461/4/6 467/4/6 471/4/6
f 471/4/6 467/4/6 472/4/6
f 470/4/6 466/4/6 473/4/6
f 473/4/6 466/4/6 474/4/6
f 475/4/6 476/4/6 477/4/6
f 477/4/6 476/4/6 478/4/6
f 479/4/6 480/4/6 483/4/6
f 483/4/6 480/4/6 484/4/6
f 481/4/6 482/4/6 487/4/6
f 487/4/6 482/4/6 488/4/6
f 485/4/6 486/4/6 489/4/6
f 489/4/6 486/4/6 490/4/6
f 491/4/6 492/4/6 493/4/6
f 493/4/6 492/4/6 494/4/6
f 495/4/6 496/4/6 499/4/6
f 499/4/6 496/4/6 500/4/6
f 497/4/6 498/4/6 501/4/6
f 501/4/6 498/4/6 502/4/6
f 503/4/6 504/4/6 507/4/6
f 507/4/6 504/4/6 508/4/6
f 505/4/6 506/4/6 509/4/6
f 509/4/6 506/4/6 510/4/6
f 511/4/6 512/4/6 513/4/6
f 513/4/6 512/4/6 514/4/6
f 515/4/6 516/4/6 519/4/6
f 519/4/6 516/4/6 520/4/6
f 517/4/6 518/4/6 521/4/6
f 521/4/6 518/4/6 522/4/6
f 523/4/6 524/4/6 525/4/6
f 525/4/6 524/4/6 526/4/6
f 527/4/6 528/4/6 529/4/6
f 529/4/6 528/4/6 530/4/6
